<?xml version="1.0" encoding="UTF-8" standalone="no"?>
<svg
   xmlns:osb="https://www.openswatchbook.org/uri/2009/osb"
   xmlns:dc="https://purl.org/dc/elements/1.1/"
   xmlns:cc="https://creativecommons.org/ns#"
   xmlns:rdf="https://www.w3.org/1999/02/22-rdf-syntax-ns#"
   xmlns:svg="https://www.w3.org/2000/svg"
   xmlns="https://www.w3.org/2000/svg"
   version="1.1"
   id="svg2"
   xml:space="preserve"
   width="5174.708"
   height="1307.259"
   viewBox="0 0 5174.708 1307.259"><metadata
     id="metadata8"><rdf:RDF><cc:Work
         rdf:about=""><dc:format>image/svg+xml</dc:format><dc:type
           rdf:resource="https://purl.org/dc/dcmitype/StillImage" /><dc:title></dc:title></cc:Work></rdf:RDF></metadata><defs
     id="defs6"><linearGradient
       id="linearGradient6061"
       osb:paint="solid"><stop
         style="stop-color:#000000;stop-opacity:1;"
         offset="0"
         id="stop6059" /></linearGradient><clipPath
       clipPathUnits="userSpaceOnUse"
       id="clipPath18"><path
         d="M 0,2267.72 H 2267.72 V 0 H 0 Z"
         id="path16" /></clipPath></defs><g
     id="g10"
     transform="matrix(1.3333333,0,0,-1.3333333,-1661.9555,3014.2834)"><g
       id="g12"
       transform="matrix(2.000926,0,0,2.000926,-1178.1069,-1214.599)"><g
         id="g14"
         clip-path="url(#clipPath18)"
         transform="matrix(0.52640288,0,0,0.52640288,766.99125,822.56793)"><g
           id="g40"
           transform="translate(1589.5908,1456.6113)"
           style="stroke:#981b1e;stroke-opacity:0.39215686"><path
             d="m 0,0 c -1.311,8.472 -3.239,16.845 -5.727,25.083 16.398,52.005 23.645,138.941 16.653,139.732 -4.5941242,0.51994 -16.4015517,0.69284 -29.110976,0.97528 -15.27877,0.33953 -31.861097,0.83735 -38.782024,2.28672 -12.676,2.654 -22.674,6.872 -18.77,43.251 3.904,36.379 -13.326,44.994 -19.037,47.403 -5.715,2.412 -23.995,-5.022 -29.573,-4.689 -5.58,0.336 -15.889,9.396 -19.437,10.558 -3.551,1.16 -10.67,-6.942 -10.67,-6.942 0,0 -4.037,8.771 -10.311,9.061 -6.27,0.29 -23.546,-11.943 -27.405,-5.937 -3.862,6.003 -18.567,21.381 -23.434,18.633 -8.612,-4.863 -33.93,-34.616 -41.139,-41.334 0,0 -13.793,0.677 -31.623,-0.476 -17.832,-1.15 -58.961,-7.668 -87.133,-29.342 -24.459,-18.815 -42.601,-45.788 -53.389,-76.183 -38.925,-15.348 -72.189,-43.424 -86.993,-58.229 -18.241,-18.241 -30.651,-33.844 -30.651,-33.844 -14.155,-1.414 -70.552,-0.52 -84.033,-5.225 -7.619,-2.661 -4.955,-33.264 -2.125,-43.174 2.833,-9.908 -26.895,-16.986 -32.556,-24.064 -5.662,-7.079 10e-4,-19.817 10e-4,-19.817 0,0 -15.572,0.001 -17.696,-4.955 -2.123,-4.955 -2.122,-24.772 -7.076,-31.142 -4.954,-6.369 -30.435,-19.108 -33.266,-27.603 -2.83,-8.491 -9.908,-35.387 33.267,-65.823 0.912,-0.642 1.793,-1.275 2.662,-1.903 -2.315,-15.933 -3.06,-29.839 -3.06,-39.225 0,-25.797 2.258,-45.605 2.258,-45.605 -9.009,-11.009 -49.521,-50.255 -55.726,-63.115 -3.506,-7.269 20.018,-27.025 29.025,-32.03 9.01,-5.003 -7.005,-31.03 -6.003,-40.038 1.002,-9.009 14.013,-14.012 14.013,-14.012 0,0 -11.011,-11.01 -9.01,-16.016 2.003,-5.005 16.016,-19.017 17.018,-27.025 1.001,-8.006 -8.01,-35.031 -4.005,-43.04 4.003,-8.006 18.018,-32.029 70.068,-23.02 52.048,9.009 59.054,-5.004 64.06,-23.022 5.004,-18.017 8.424,-83.041 11.014,-97.51 2.59,-14.47 262.209,30.773 251.994,79.432 -6.588,31.387 -19.779,77.141 -11.771,94.154 3.788,8.05 38.482,31.337 71.983,69.424 18.96982,-21.54028 37.94507,-43.07622 56.89818,-64.6314 6.78019,-7.71104 13.55755,-15.42455 20.33082,-23.1416 13.93,-15.871 37.17,-16.964 51.795,-2.284 14.653,14.71 13.473,37.952 -2.334,51.799 -24.99583,21.90303 -49.91671,43.89559 -74.8649,65.85776 -1.31459,1.15726 -2.62927,2.31443 -3.94403,3.4715 -2.66759,2.34764 -5.33555,4.69485 -8.00401,7.0415 -2.37726,2.09056 -4.75492,4.18068 -7.13306,6.27024 5.761,9.605 11.042,19.785 15.58,30.551 4.595,-2.527 9.694,-5.719 15.416,-9.71 38.513,-26.868 58.851,-12.807 65.09,-7.87 6.243,4.939 9.174,30.095 12.995,36.165 3.825,6.069 20.389,12.07 23.888,15.345 3.498,3.276 -1.219,16.292 -1.219,16.292 0,0 12.362,-0.877 16.564,6.001 4.201,6.875 1.113,33.868 10.253,34.498 9.14,0.636 35.526,7.678 35.442,14.852 -0.152,12.693 -17.98,59.559 -21.084,71.819 0,0 9.283,15.097 19.004,35.869 C -11.101,-95.381 6.978,-45.083 0,0 Z"
             style="fill:#0d5bb5;fill-opacity:1;stroke:#981b1e;stroke-width:1;stroke-linecap:butt;stroke-linejoin:miter;stroke-miterlimit:10;stroke-dasharray:none;stroke-opacity:0.39215686"
             id="path42" /><g
             id="layer1"
             style="stroke:#981b1e;stroke-opacity:0.39215686" /><path
             style="fill:#aeb0b5;fill-opacity:1;stroke:none;stroke-width:0.96255094;stroke-opacity:0.39215686"
             d="m 1598.3215,2091.9599 c -20.5675,-3.3201 -40.3854,-13.4685 -54.5758,-27.9475 -3.0172,-3.0785 -51.7956,-58.2247 -108.3966,-122.5472 l -102.9109,-116.95 2.516,-2.9486 c 24.5295,-28.7474 44.3612,-54.1808 60.1841,-77.1837 4.0967,-5.9558 7.6583,-10.8287 7.9146,-10.8287 0.6717,0 24.6441,21.3927 110.5641,98.666 70.3284,63.2507 119.2317,106.9354 134.1166,119.8044 10.9641,9.4793 18.7532,21.8665 21.7044,34.5171 1.7266,7.4017 2.8375,9.2887 6.316,10.7296 4.0579,1.6808 9.1429,0.5207 11.6642,-2.661 1.7494,-2.2076 1.984,-3.4295 1.5181,-7.9052 -1.1954,-11.4828 -8.1716,-26.8634 -16.9915,-37.4616 -2.5892,-3.1112 -11.9839,-12.0897 -20.877,-19.9522 -29.4197,-26.0099 -60.7371,-54.0583 -119.1043,-106.6715 -60.8584,-54.8589 -101.9596,-91.7686 -112.108,-100.6755 l -6.0995,-5.3532 1.5555,-3.0081 c 0.8555,-1.6544 1.9388,-3.2449 2.4074,-3.5345 0.4686,-0.2896 32.4163,27.2623 70.995,61.2264 38.5787,33.9641 96.3495,84.7895 128.3797,112.9453 43.3382,38.0961 59.7771,53.1353 64.258,58.7868 7.2171,9.1023 13.722,21.7796 17.2362,33.5913 2.322,7.8046 2.5789,10.1889 2.593,24.0638 0.013,12.9215 -0.3251,16.6404 -2.1009,23.1012 -8.7975,32.0077 -34.6103,57.7133 -66.3147,66.0393 -7.3981,1.9429 -27.8405,3.2232 -34.4437,2.1573 z"
             id="path6192"
             transform="matrix(0.37482646,0,0,-0.37482646,-744.73507,280.24034)" /></g><g
           id="g20"
           transform="translate(877.4922,1086.2764)" /><g
           id="g48"
           transform="translate(1343.9453,1091.9033)"
           style="fill:#494440;fill-opacity:1;stroke:#000000;stroke-opacity:0.83333333"><path
             d="m 0,0 c -9.111,-9.086 -18.947,-17.217 -29.43,-24.363 l -13.172,13.154 24.098,-24.066 55.156,55.226 -11.078,11.065 C 18.123,19.926 9.584,9.559 0,0 Z"
             style="fill:#e4e2e0;fill-opacity:1;stroke:#000000;stroke-width:1;stroke-linecap:butt;stroke-linejoin:miter;stroke-miterlimit:10;stroke-dasharray:none;stroke-opacity:0.83333333"
             id="path50" /></g><g
           id="g52"
           transform="translate(1356.5,1135.9209)"><path
             d="M 0,0 -1.391,-1.392 V -1.393 Z"
             style="fill:none;stroke:#01ff00;stroke-width:1;stroke-linecap:butt;stroke-linejoin:miter;stroke-miterlimit:10;stroke-dasharray:none;stroke-opacity:1"
             id="path54" /></g><g
           id="g56"
           transform="translate(1369.5195,1122.9189)"
           style="stroke:#000000;stroke-opacity:1"><path
             d="M 0,0 -13.02,13.002 Z"
             style="fill:#e4e2e0;fill-opacity:1;stroke:#000000;stroke-width:1;stroke-linecap:butt;stroke-linejoin:miter;stroke-miterlimit:10;stroke-dasharray:none;stroke-opacity:1"
             id="path58" /></g><g
           id="g60"
           transform="translate(1029.5371,1246.7744)"
           style="fill:#aeb0b5;fill-opacity:1;stroke:#000000;stroke-opacity:1"><path
             d="m 0,0 c 0.127,21.098 4.234,41.621 12.207,60.998 8.256,20.063 20.311,37.996 35.832,53.305 15.346,15.133 33.264,26.853 53.256,34.83 19.307,7.705 39.713,11.611 60.65,11.611 21.196,0 41.809,-3.998 61.264,-11.887 20.143,-8.164 38.105,-20.144 53.387,-35.605 62.97,-63.711 62.586,-166.621 -0.858,-229.406 -30.388,-30.075 -70.865,-46.637 -113.976,-46.637 -21.223,0 -41.873,4.016 -61.381,11.937 -20.197,8.202 -38.235,20.239 -53.613,35.776 -15.372,15.529 -27.237,33.644 -35.27,53.844 C 3.74,-41.727 -0.129,-21.125 0,0 Z m 325.572,-112.246 c 52.029,76.657 44.334,182.296 -23.377,250.803 -18.738,18.957 -40.761,33.647 -65.463,43.659 -23.771,9.637 -48.933,14.524 -74.787,14.524 -25.527,0 -50.42,-4.77 -73.99,-14.175 C 63.479,172.798 41.545,158.453 22.764,139.93 3.777,121.205 -10.973,99.258 -21.08,74.695 -30.822,51.02 -35.84,25.963 -35.996,0.217 c -0.154,-25.774 4.57,-50.924 14.047,-74.754 9.83,-24.717 24.342,-46.877 43.135,-65.863 18.826,-19.02 40.914,-33.758 65.652,-43.803 23.83,-9.678 49.037,-14.584 74.924,-14.584 25.558,0 50.48,4.791 74.072,14.24 13.245,5.305 25.739,11.965 37.4,19.897 l -1.427,-1.43 z"
             style="fill:#e4e2e0;fill-opacity:1;stroke:#000000;stroke-width:1;stroke-linecap:butt;stroke-linejoin:miter;stroke-miterlimit:10;stroke-dasharray:none;stroke-opacity:1"
             id="path62" /></g><g
           id="g64"
           transform="translate(1133.3086,1104.2686)"
           style="fill:#dce4ef;fill-opacity:1;stroke:#000000;stroke-opacity:1"><path
             d="m 0,0 c 18.426,-7.482 37.936,-11.275 57.99,-11.275 40.723,0 78.949,15.636 107.641,44.031 59.912,59.291 60.265,156.49 0.785,216.67 -14.416,14.584 -31.361,25.886 -50.363,33.588 -18.375,7.449 -37.848,11.226 -57.879,11.226 -40.705,0 -78.91,-15.572 -107.58,-43.847 C -78.408,221.791 -94.516,183.455 -94.764,142.451 -95.01,101.387 -79.327,62.787 -50.602,33.766 -36.086,19.1 -19.061,7.74 0,0 Z"
             style="fill:#dce4ef;fill-opacity:1;stroke:#000000;stroke-width:1;stroke-linecap:butt;stroke-linejoin:miter;stroke-miterlimit:10;stroke-dasharray:none;stroke-opacity:1"
             id="path66" /></g><g
           id="g68"
           transform="translate(1044.4941,1245.751)"
           style="fill:#4773aa;fill-opacity:1;stroke:#4773aa;stroke-opacity:0.4857143"><path
             d="m 0,0 c 0,-81.083 65.732,-146.813 146.814,-146.813 81.084,0 146.815,65.73 146.815,146.813 0,81.084 -65.731,146.814 -146.815,146.814 C 65.732,146.814 0,81.084 0,0 Z"
             style="fill:#4773aa;fill-opacity:1;stroke:#4773aa;stroke-width:1;stroke-linecap:butt;stroke-linejoin:miter;stroke-miterlimit:10;stroke-dasharray:none;stroke-opacity:0.4857143"
             id="path70" /></g><g
           id="g6208"
           style="fill:#4aa564;fill-opacity:0.85238091"><g
             transform="translate(1320.4795,1290.7393)"
             id="g72"
             style="fill:#4aa564;fill-opacity:0.85238091"><path
               id="path74"
               style="fill:#4aa564;fill-opacity:0.85238091;stroke:#4aa564;stroke-width:1;stroke-linecap:butt;stroke-linejoin:miter;stroke-miterlimit:10;stroke-dasharray:none;stroke-opacity:1"
               d="m 0,0 v -10.104 c 0,-0.23 -0.062,-0.457 -0.181,-0.654 l -5.283,-8.804 c -0.164,-0.275 -0.427,-0.477 -0.734,-0.567 l -3.401,-0.992 c -0.668,-0.194 -1.369,0.185 -1.572,0.85 l -0.914,3.005 c -0.126,0.414 -0.032,0.866 0.25,1.196 l 6.613,7.747 c 0.223,0.262 0.331,0.603 0.298,0.946 l -0.474,4.986 c -0.062,0.653 -0.611,1.151 -1.266,1.151 h -0.671 c -0.648,0 -1.192,-0.489 -1.264,-1.133 L -9.285,-8.645 C -9.31,-8.859 -9.388,-9.066 -9.514,-9.242 l -8.12,-11.408 c -0.343,-0.482 -0.308,-1.135 0.082,-1.579 l 1.781,-2.019 c 0.419,-0.475 0.426,-1.184 0.016,-1.664 l -6.266,-7.374 c -0.146,-0.171 -0.335,-0.302 -0.548,-0.376 l -10.416,-3.655 c -0.713,-0.249 -1.486,0.173 -1.659,0.909 l -0.279,1.187 c -0.141,0.6 -0.693,1.012 -1.308,0.979 l -1.549,-0.086 c -0.674,-0.037 -1.2,-0.595 -1.2,-1.27 v -1.277 c 0,-0.544 -0.347,-1.028 -0.863,-1.203 l -8.768,-2.985 c -0.214,-0.074 -0.405,-0.202 -0.552,-0.373 l -7.54,-8.73 c -0.185,-0.214 -0.436,-0.36 -0.713,-0.416 l -10.202,-2.04 c -0.594,-0.119 -1.022,-0.64 -1.022,-1.247 v -6.367 c 0,-0.404 0.19,-0.783 0.514,-1.022 l 5.635,-4.18 c 0.267,-0.201 0.447,-0.497 0.498,-0.827 l 2.16,-13.941 c 0.058,-0.371 -0.052,-0.748 -0.299,-1.03 l -15.601,-17.862 c -0.073,-0.082 -0.157,-0.155 -0.248,-0.216 l -9.682,-6.522 c -0.351,-0.236 -0.561,-0.631 -0.561,-1.054 v -23.749 c 0,-0.481 -0.272,-0.921 -0.703,-1.136 l -0.562,-0.282 c -0.506,-0.253 -0.783,-0.808 -0.683,-1.364 l 1.823,-10.03 c 0.078,-0.427 -0.067,-0.862 -0.384,-1.158 l -5.194,-4.836 c -0.279,-0.26 -0.427,-0.631 -0.402,-1.011 l 0.778,-12.064 c 0.02,-0.302 -0.07,-0.604 -0.254,-0.846 l -14.376,-19.033 c -0.24,-0.318 -0.615,-0.505 -1.013,-0.505 h -7.762 c -0.807,0 -1.408,0.741 -1.244,1.53 l 0.674,3.233 c 0.043,0.21 0.14,0.407 0.281,0.571 l 4.539,5.264 c 0.33,0.382 0.401,0.924 0.183,1.38 l -2.058,4.285 c -0.082,0.172 -0.125,0.36 -0.125,0.551 v 1.225 c 0,0.599 0.419,1.117 1.005,1.243 l 4.013,0.859 c 0.543,0.117 0.949,0.574 1,1.128 l 0.052,0.597 c 0.045,0.489 -0.196,0.961 -0.621,1.21 l -2.18,1.283 c -0.441,0.259 -0.683,0.758 -0.615,1.264 l 0.209,1.566 c 0.063,0.476 0.389,0.875 0.842,1.033 l 4.134,1.437 -0.573,1.003 c -0.175,0.306 -0.469,0.526 -0.813,0.606 l -9.875,2.324 c -0.255,0.06 -0.484,0.197 -0.658,0.392 l -8.34,9.358 c -0.053,0.058 -0.1,0.122 -0.141,0.189 l -5.72,9.496 c -0.06,0.098 -0.106,0.205 -0.137,0.315 l -0.934,3.359 c -0.088,0.32 -0.048,0.662 0.112,0.953 l 1.748,3.179 c 0.207,0.377 0.21,0.833 0.006,1.213 l -2.482,4.633 c -0.226,0.423 -0.672,0.682 -1.152,0.67 l -7.262,-0.181 c -0.278,-0.006 -0.552,0.078 -0.778,0.241 l -5.327,3.858 c -0.298,0.215 -0.488,0.549 -0.521,0.915 l -1.607,17.689 c -0.024,0.247 -0.117,0.481 -0.272,0.676 l -6.902,8.677 c -0.178,0.225 -0.276,0.502 -0.276,0.791 v 2.27 c 0,0.533 0.333,1.01 0.833,1.193 l 5.06,1.855 c 0.297,0.11 0.543,0.325 0.691,0.606 l 1.987,3.811 c 0.203,0.388 0.593,0.645 1.031,0.679 l 15.875,1.202 c 0.144,0.009 0.283,0.045 0.415,0.102 l 7.105,3.12 c 0.529,0.233 0.836,0.794 0.743,1.365 l -0.823,5.099 c -0.051,0.32 0.021,0.648 0.203,0.915 l 3.788,5.593 c 0.237,0.349 0.631,0.558 1.052,0.558 h 8.554 c 0.451,0 0.869,0.24 1.098,0.628 l 3.196,5.454 c 0.025,0.041 0.051,0.082 0.079,0.119 l 3.098,4.129 c 0.385,0.513 1.091,0.659 1.647,0.341 l 1.794,-1.025 c 0.131,-0.074 0.274,-0.125 0.422,-0.15 l 7.764,-1.293 c 0.543,-0.092 1.082,0.177 1.336,0.665 l 1.824,3.496 c 0.184,0.352 0.521,0.598 0.914,0.665 l 7.36,1.257 c 0.437,0.075 0.882,-0.084 1.173,-0.418 l 6.301,-7.229 c 0.272,-0.311 0.677,-0.471 1.088,-0.429 l 10.664,1.084 c 0.664,0.069 1.164,0.639 1.143,1.306 l -0.354,10.952 c -0.019,0.586 0.364,1.108 0.929,1.266 l 6.612,1.846 c 0.787,0.218 1.166,1.111 0.777,1.83 l -1.826,3.369 c -0.11,0.205 -0.163,0.435 -0.15,0.669 l 0.092,1.845 c 0.047,0.94 1.062,1.504 1.884,1.049 l 9.643,-5.338 c 0.281,-0.155 0.611,-0.199 0.924,-0.121 l 5.592,1.398 c 0.434,0.109 0.78,0.438 0.909,0.868 l 1.582,5.272 c 0.076,0.255 0.071,0.526 -0.015,0.776 l -2.892,8.485 c -0.099,0.291 -0.301,0.536 -0.567,0.691 l -8.797,5.082 c -0.211,0.122 -0.453,0.181 -0.697,0.169 L -62.019,-6.59 c -0.636,-0.03 -1.152,-0.527 -1.206,-1.164 l -0.292,-3.495 c -0.025,-0.308 -0.162,-0.596 -0.384,-0.811 l -3.354,-3.223 c -0.75,-0.722 -2.004,-0.285 -2.141,0.748 l -1.289,9.666 c -0.046,0.355 -0.242,0.674 -0.535,0.877 l -12.151,8.428 c -0.329,0.228 -0.531,0.597 -0.546,0.997 l -0.166,4.491 c -0.015,0.377 -0.194,0.726 -0.492,0.958 l -16.386,12.698 c -0.061,0.049 -0.118,0.102 -0.171,0.16 l -6.097,6.86 c -0.361,0.406 -0.942,0.537 -1.443,0.326 l -2.399,-1.01 c -0.476,-0.2 -1.026,-0.092 -1.391,0.273 l -0.125,0.123 c -0.521,0.522 -0.49,1.378 0.068,1.862 l 2.878,2.484 c 0.441,0.381 0.567,1.01 0.306,1.53 l -0.266,0.532 c -0.214,0.431 -0.655,0.703 -1.136,0.703 h -4.005 c -0.734,0 -1.315,-0.618 -1.269,-1.351 l 0.037,-0.604 c 0.049,-0.762 -0.582,-1.394 -1.344,-1.348 l -4.87,0.296 c -0.428,0.025 -0.815,0.265 -1.028,0.637 l -0.988,1.73 c -0.227,0.396 -0.647,0.64 -1.104,0.64 h -0.25 c -0.644,0 -1.187,-0.483 -1.261,-1.122 l -0.188,-1.594 c -0.062,-0.531 0.215,-1.046 0.694,-1.285 l 2.381,-1.192 c 0.596,-0.296 0.861,-1.003 0.608,-1.619 l -0.78,-1.892 c -0.159,-0.387 -0.498,-0.67 -0.907,-0.758 l -9.213,-1.988 c -0.555,-0.119 -1.123,0.143 -1.389,0.645 l -0.749,1.403 c -0.287,0.538 -0.151,1.205 0.324,1.587 l 4.488,3.621 c 0.299,0.24 0.473,0.604 0.473,0.989 v 1.934 c 0,0.702 -0.569,1.271 -1.272,1.271 h -0.365 c -0.664,0 -1.217,0.512 -1.267,1.173 l -0.27,3.494 c -0.039,0.51 0.231,0.994 0.686,1.227 l 5.589,2.88 c 0.405,0.207 0.666,0.615 0.688,1.068 l 0.293,6.006 c 0.045,0.917 1.017,1.487 1.838,1.076 l 6,-2.999 c 0.201,-0.102 0.427,-0.147 0.652,-0.132 l 1.351,0.091 c 0.778,0.051 1.327,0.787 1.155,1.547 l -0.847,3.751 c -0.165,0.733 0.337,1.448 1.082,1.541 l 5.091,0.637 c 0.195,0.024 0.383,0.094 0.547,0.203 l 2.124,1.416 c 0.476,0.318 1.104,0.279 1.536,-0.095 l 3.56,-3.075 c 0.237,-0.205 0.391,-0.492 0.43,-0.803 l 1.086,-8.69 c 0.073,-0.583 0.537,-1.041 1.121,-1.106 l 4.063,-0.45 c 0.412,-0.046 0.779,-0.292 0.977,-0.66 l 3.585,-6.632 c 0.209,-0.386 0.602,-0.637 1.04,-0.664 l 1.293,-0.081 c 0.748,-0.047 1.373,0.558 1.35,1.306 l -0.143,4.706 c -0.016,0.535 0.304,1.024 0.802,1.221 l 9.672,3.832 c 0.446,0.176 0.754,0.589 0.799,1.066 l 0.277,3.055 c 0.045,0.503 -0.211,0.984 -0.652,1.229 l -16.143,8.906 c -0.764,0.422 -1.716,-0.035 -1.867,-0.896 l -0.299,-1.722 c -0.13,-0.745 -0.876,-1.212 -1.601,-1.005 l -1.043,0.298 c -0.358,0.102 -0.654,0.356 -0.807,0.696 l -0.478,1.051 c -0.206,0.453 -0.659,0.744 -1.157,0.744 h -0.839 c -0.916,0 -1.533,0.941 -1.164,1.781 l 0.13,0.3 c 0.305,0.697 -0.066,1.504 -0.795,1.725 l -3.228,0.983 c -0.182,0.055 -0.35,0.15 -0.489,0.279 l -4.508,4.131 c -0.235,0.216 -0.54,0.334 -0.859,0.334 h -7.736 c -0.295,0 -0.58,-0.102 -0.807,-0.289 l -1.822,-1.5 c -0.688,-0.567 -0.594,-1.648 0.182,-2.088 l 6.575,-3.722 c 1.033,-0.585 0.773,-2.14 -0.395,-2.355 l -4.16,-0.767 c -0.292,-0.053 -0.556,-0.208 -0.747,-0.436 l -1.404,-1.685 c -0.264,-0.316 -0.663,-0.485 -1.074,-0.453 l -1.483,0.113 c -0.388,0.031 -0.744,0.238 -0.96,0.563 l -2.616,3.923 c -0.263,0.396 -0.728,0.612 -1.203,0.557 l -4.072,-0.469 c -0.416,-0.048 -0.828,0.11 -1.102,0.424 l -1.499,1.713 c -0.53,0.606 -0.37,1.547 0.331,1.944 l 2.867,1.621 c 0.4,0.225 0.647,0.648 0.647,1.106 v 2.944 c 0,0.469 0.26,0.901 0.674,1.122 l 12.537,6.66 c 0.226,0.121 0.482,0.17 0.737,0.14 l 8.818,-0.978 c 0.212,-0.025 0.418,-0.102 0.593,-0.227 l 4.428,-3.136 c 0.25,-0.178 0.428,-0.44 0.5,-0.738 l 1.266,-5.219 c 0.173,-0.711 0.907,-1.13 1.606,-0.917 l 2.683,0.816 c 0.535,0.163 0.901,0.657 0.901,1.216 v 1.726 c 0,0.329 -0.126,0.642 -0.351,0.878 l -2.151,2.253 c -0.756,0.793 -0.223,2.106 0.87,2.149 l 7.463,0.287 c 0.455,0.017 0.886,-0.211 1.127,-0.597 l 0.987,-1.579 c 0.398,-0.637 0.162,-1.476 -0.509,-1.811 l -1.437,-0.718 C -92.52,74.421 -92.792,73.98 -92.792,73.5 v -1.258 c 0,-0.646 0.485,-1.19 1.127,-1.263 l 5.945,-0.68 c 0.225,-0.026 0.439,-0.111 0.619,-0.246 l 2.741,-2.055 c 0.241,-0.182 0.538,-0.27 0.839,-0.252 l 5.436,0.324 c 0.671,0.04 1.195,0.596 1.195,1.269 v 1.777 c 0,0.611 -0.433,1.134 -1.031,1.248 l -6.346,1.218 c -0.232,0.044 -0.448,0.152 -0.623,0.314 l -3.564,3.291 c -0.732,0.674 -0.438,1.891 0.522,2.158 l 1.054,0.293 c 0.356,0.098 0.737,0.038 1.045,-0.167 l 3.645,-2.43 c 0.209,-0.139 0.454,-0.213 0.705,-0.213 h 4.019 c 0.365,0 0.713,0.156 0.953,0.43 l 3.205,3.638 c 0.215,0.245 0.516,0.397 0.839,0.426 l 8.303,0.755 c 0.329,0.03 0.659,-0.07 0.917,-0.279 l 4.121,-3.349 c 0.86,-0.699 0.475,-2.088 -0.623,-2.245 l -2.838,-0.405 c -0.846,-0.121 -1.334,-1.024 -0.973,-1.796 l 0.047,-0.103 c 0.358,-0.763 -0.115,-1.656 -0.947,-1.792 l -6.75,-1.098 c -0.436,-0.071 -0.804,-0.364 -0.972,-0.771 l -0.515,-1.253 c -0.338,-0.819 0.246,-1.724 1.132,-1.754 l 10.132,-0.343 c 0.344,-0.012 0.678,0.117 0.926,0.355 l 5.322,5.133 c 0.147,0.141 0.323,0.244 0.516,0.303 l 7.982,2.41 C -22.198,59.238 -4.364,37.23 6.368,11.518 L 5.778,4.438 C 5.742,4.002 5.485,3.616 5.097,3.415 L 0.687,1.128 C 0.265,0.91 0,0.475 0,0 Z" /></g><g
             style="fill:#4aa564;fill-opacity:0.85238091;stroke:#4aa564;stroke-opacity:1"
             transform="translate(1215.1982,1313.1904)"
             id="g76"><path
               id="path78"
               style="fill:#4aa564;fill-opacity:0.85238091;stroke:#4aa564;stroke-width:1;stroke-linecap:butt;stroke-linejoin:miter;stroke-miterlimit:10;stroke-dasharray:none;stroke-opacity:1"
               d="m 0,0 -0.409,-1.145 c -0.244,-0.683 -1.01,-1.023 -1.681,-0.748 l -1.581,0.652 c -0.476,0.196 -0.787,0.66 -0.787,1.175 V 1.42 c 0,0.455 0.242,0.875 0.636,1.101 l 1.036,0.598 c 0.599,0.347 1.367,0.149 1.724,-0.447 L -0.106,1.081 C 0.089,0.754 0.128,0.357 0,0 Z" /></g><g
             style="fill:#4aa564;fill-opacity:0.85238091;stroke:#4aa564;stroke-opacity:1"
             transform="translate(1203.2109,1319.499)"
             id="g80"><path
               id="path82"
               style="fill:#4aa564;fill-opacity:0.85238091;stroke:#4aa564;stroke-width:1;stroke-linecap:butt;stroke-linejoin:miter;stroke-miterlimit:10;stroke-dasharray:none;stroke-opacity:1"
               d="m 0,0 0.652,-1.74 c 0.186,-0.496 0.66,-0.825 1.19,-0.825 H 3.08 c 0.702,0 1.272,-0.569 1.272,-1.271 v -2.119 c 0,-0.701 -0.57,-1.272 -1.272,-1.272 H 2.514 c -0.439,0 -0.846,0.227 -1.078,0.598 l -1.482,2.371 c -0.17,0.272 -0.434,0.469 -0.743,0.553 l -2.981,0.812 c -0.667,0.182 -1.066,0.864 -0.898,1.536 l 0.305,1.218 c 0.14,0.567 0.649,0.963 1.232,0.963 h 1.94 C -0.661,0.824 -0.187,0.496 0,0 Z" /></g><g
             style="fill:#4aa564;fill-opacity:0.85238091;stroke:#4aa564;stroke-opacity:0.71428576"
             transform="translate(1050.1211,1286.1377)"
             id="g84"><path
               id="path86"
               style="fill:#4aa564;fill-opacity:0.85238091;stroke:#4aa564;stroke-width:1;stroke-linecap:butt;stroke-linejoin:miter;stroke-miterlimit:10;stroke-dasharray:none;stroke-opacity:0.71428576"
               d="m 0,0 12.195,-0.129 c 0.351,-0.003 0.688,0.138 0.931,0.392 l 4.269,4.445 c 0.273,0.286 0.666,0.428 1.06,0.383 L 25.82,4.254 C 26.544,4.172 27.051,3.5 26.932,2.782 l -0.256,-1.53 c -0.162,-0.979 0.808,-1.759 1.728,-1.389 l 14.649,5.895 c 0.39,0.158 0.677,0.497 0.766,0.908 l 1.12,5.123 c 0.129,0.584 0.645,1 1.243,1 h 14.339 c 0.336,0 0.661,-0.135 0.899,-0.372 l 2.222,-2.222 C 63.88,9.957 64.203,9.823 64.541,9.823 h 13.367 c 0.197,0 0.391,-0.046 0.569,-0.135 L 83.994,6.929 C 84.354,6.75 84.605,6.413 84.678,6.02 l 1.506,-8.283 c 0.048,-0.268 0.182,-0.514 0.382,-0.7 l 12.317,-11.51 c 0.194,-0.181 0.326,-0.42 0.379,-0.68 l 0.559,-2.8 c 0.12,-0.601 -0.205,-1.201 -0.774,-1.429 l -2.209,-0.884 c -0.598,-0.238 -0.921,-0.886 -0.756,-1.507 l 0.428,-1.604 c 0.083,-0.311 0.281,-0.58 0.554,-0.75 l 2.368,-1.48 c 0.371,-0.233 0.596,-0.639 0.596,-1.078 v -11.313 c 0,-0.311 -0.113,-0.609 -0.318,-0.842 l -4.554,-5.148 -7.127,-7.336 c -0.05,-0.053 -0.097,-0.11 -0.137,-0.169 l -2.722,-3.992 c -0.246,-0.361 -0.658,-0.569 -1.095,-0.554 l -4.943,0.17 c -0.321,0.012 -0.626,0.143 -0.855,0.372 l -2.05,2.051 c -0.225,0.224 -0.526,0.356 -0.842,0.371 l -8.364,0.38 c -0.3,0.014 -0.586,0.133 -0.806,0.339 l -2.259,2.096 c -0.235,0.219 -0.544,0.34 -0.866,0.34 h -3.422 c -0.337,0 -0.661,-0.134 -0.898,-0.372 l -2.647,-2.645 c -0.238,-0.239 -0.56,-0.372 -0.898,-0.372 h -7.64 c -0.655,0 -1.202,-0.498 -1.265,-1.15 l -1.347,-14.045 c -0.017,-0.179 -0.072,-0.35 -0.16,-0.506 l -8.377,-14.761 c -0.237,-0.417 -0.219,-0.932 0.048,-1.333 l 5.284,-7.925 c 0.138,-0.209 0.212,-0.454 0.212,-0.705 v -4.952 c 0,-0.377 -0.166,-0.736 -0.457,-0.976 l -4.169,-3.475 c -0.29,-0.242 -0.458,-0.599 -0.458,-0.976 v -11.652 c 0,-0.3 -0.105,-0.59 -0.298,-0.82 l -5.121,-6.069 c -0.194,-0.229 -0.3,-0.52 -0.3,-0.819 v -8.812 c 0,-0.721 -0.593,-1.297 -1.314,-1.27 -0.596,0.022 -1.36,0.053 -2.213,0.09 -20.793,25.333 -33.277,57.746 -33.277,93.078 0,14.008 1.965,27.555 5.627,40.387 z" /></g><g
             style="fill:#4aa564;fill-opacity:0.85238091;stroke:#4aa564;stroke-opacity:0.71428576"
             transform="translate(1104.8027,1345.8623)"
             id="g88"><path
               id="path90"
               style="fill:#4aa564;fill-opacity:0.85238091;stroke:#4aa564;stroke-width:1;stroke-linecap:butt;stroke-linejoin:miter;stroke-miterlimit:10;stroke-dasharray:none;stroke-opacity:0.71428576"
               d="m 0,0 -2.922,-2.258 c -0.16,-0.124 -0.29,-0.285 -0.376,-0.47 L -5.383,-7.22 C -5.68,-7.859 -6.439,-8.135 -7.077,-7.835 l -2.114,0.995 c -0.217,0.102 -0.4,0.263 -0.53,0.463 l -0.47,0.732 c -0.539,0.84 -1.791,0.76 -2.218,-0.142 l -2.249,-4.747 c -0.317,-0.667 0,-1.462 0.687,-1.73 l 2.346,-0.911 c 0.129,-0.051 0.264,-0.079 0.403,-0.085 1.398,-0.058 9.382,-0.379 9.962,0.008 0.573,0.383 3.556,-4.228 4.138,-5.141 0.066,-0.103 0.146,-0.195 0.239,-0.276 l 2.769,-2.399 c 0.176,-0.154 0.389,-0.254 0.618,-0.293 l 7.527,-1.285 c 0.492,-0.084 0.89,-0.45 1.016,-0.933 l 0.761,-2.915 c 0.171,-0.652 -0.199,-1.324 -0.841,-1.531 l -3.347,-1.076 c -0.752,-0.241 -1.103,-1.102 -0.735,-1.802 l 0.906,-1.722 c 0.291,-0.555 0.945,-0.813 1.537,-0.609 l 5.75,1.975 4.326,1.712 c 0.461,0.184 0.988,0.08 1.347,-0.264 l 2.651,-2.537 c 0.383,-0.367 0.498,-0.932 0.288,-1.42 l -1.028,-2.393 c -0.111,-0.255 -0.134,-0.54 -0.065,-0.81 l 0.823,-3.297 c 0.084,-0.336 0.027,-0.689 -0.154,-0.982 l -2.402,-3.842 c -0.147,-0.234 -0.365,-0.415 -0.622,-0.513 l -3.25,-1.247 c -0.145,-0.055 -0.3,-0.084 -0.455,-0.084 h -5.519 c -0.118,0 -0.235,0.016 -0.349,0.049 l -3.739,1.069 c -0.344,0.097 -0.629,0.335 -0.789,0.654 l -1.911,3.82 c -0.042,0.085 -0.093,0.165 -0.154,0.239 l -5.648,6.893 c -0.313,0.38 -0.815,0.547 -1.291,0.428 l -2.866,-0.717 c -0.374,-0.093 -0.769,-0.012 -1.077,0.222 l -3.633,2.761 c -0.62,0.471 -1.512,0.28 -1.885,-0.404 l -1.661,-3.045 c -0.113,-0.207 -0.283,-0.379 -0.488,-0.496 l -7.641,-4.342 c -0.703,-0.399 -0.861,-1.345 -0.323,-1.949 l 2.347,-2.641 0.843,-0.918 c 0.661,-0.722 0.294,-1.888 -0.661,-2.101 l -3.153,-0.699 c -0.272,-0.061 -0.556,-0.031 -0.808,0.086 l -1.627,0.751 c -0.449,0.207 -0.737,0.658 -0.737,1.153 v 4.06 c 0,0.702 -0.57,1.27 -1.272,1.27 -0.702,0 -1.271,0.57 -1.271,1.272 v 0.898 c 0,0.486 0.279,0.932 0.717,1.144 l 5.721,2.768 c 0.086,0.042 0.166,0.093 0.241,0.152 l 3.695,2.955 c 0.275,0.22 0.446,0.544 0.472,0.895 l 0.072,0.927 c 0.054,0.704 -0.476,1.317 -1.18,1.365 l -4.365,0.302 c -0.322,0.021 -0.64,-0.078 -0.89,-0.281 l -6.038,-4.908 c -0.228,-0.184 -0.384,-0.442 -0.444,-0.728 l -1.12,-5.417 c -0.039,-0.187 -0.119,-0.364 -0.235,-0.514 l -3.674,-4.805 c -0.656,-0.857 -2.016,-0.558 -2.251,0.497 l -1.017,4.58 c -0.055,0.25 -0.184,0.475 -0.369,0.65 l -1.69,1.59 c -0.719,0.676 -1.898,0.312 -2.111,-0.65 l -1.135,-5.1 c -0.05,-0.226 -0.16,-0.434 -0.32,-0.602 l -3.914,-4.099 c -0.19,-0.199 -0.437,-0.33 -0.707,-0.375 l -5.952,-1.014 c 8.435,22.858 22.399,43.035 40.264,58.921 l 0.678,-1.357 c 0.111,-0.221 0.284,-0.405 0.498,-0.529 l 9.691,-5.64 C 0.641,1.65 0.713,0.551 0,0 Z" /></g><g
             style="fill:#4aa564;fill-opacity:0.85238091;stroke:#4aa564;stroke-opacity:1"
             transform="translate(1119.0293,1331.8242)"
             id="g92"><path
               id="path94"
               style="fill:#4aa564;fill-opacity:0.85238091;stroke:#4aa564;stroke-width:1;stroke-linecap:butt;stroke-linejoin:miter;stroke-miterlimit:10;stroke-dasharray:none;stroke-opacity:1"
               d="m 0,0 1.758,-0.97 c 0.404,-0.222 0.656,-0.65 0.656,-1.112 v -2.216 c 0,-0.701 -0.568,-1.27 -1.27,-1.27 h -7.053 c -0.425,0 -0.821,0.212 -1.058,0.565 l -2.424,3.635 c -0.339,0.512 -0.266,1.193 0.176,1.621 l 4.891,4.715 c 0.181,0.175 0.304,0.399 0.359,0.644 l 1.5,6.886 c 0.127,0.583 0.645,1 1.242,1 h 3.381 c 0.482,0 0.922,-0.272 1.137,-0.702 L 4.98,9.425 C 5.269,8.849 5.079,8.147 4.54,7.794 L -0.083,4.765 C -0.441,4.53 -0.658,4.13 -0.658,3.702 V 1.114 C -0.658,0.65 -0.406,0.224 0,0 Z" /></g><g
             style="fill:#4aa564;fill-opacity:0.85238091;stroke:#4aa564;stroke-opacity:1"
             transform="translate(1122.9141,1334.2822)"
             id="g96"><path
               id="path98"
               style="fill:#4aa564;fill-opacity:0.85238091;stroke:#4aa564;stroke-width:1;stroke-linecap:butt;stroke-linejoin:miter;stroke-miterlimit:10;stroke-dasharray:none;stroke-opacity:1"
               d="M 0,0 0.523,1.046 C 0.672,1.341 0.929,1.568 1.24,1.677 l 3.019,1.055 c 0.45,0.159 0.95,0.051 1.296,-0.277 l 3.123,-2.968 c 0.339,-0.321 0.474,-0.803 0.35,-1.256 L 8.262,-4.578 C 8.037,-5.4 7.086,-5.773 6.363,-5.323 L 0.465,-1.648 C -0.092,-1.301 -0.293,-0.587 0,0 Z" /></g></g></g><g
         id="layer2"><g
           id="g6174"
           style="fill:#494440;fill-opacity:0.66666667;stroke:none"
           transform="matrix(0.52640288,0,0,0.52640288,766.99125,822.56793)"><path
             id="path22"
             style="fill:#494440;fill-opacity:0.66666667;stroke:none;stroke-width:1;stroke-linecap:butt;stroke-linejoin:miter;stroke-miterlimit:10;stroke-dasharray:none;stroke-opacity:1"
             d="m 0,0 c -0.088,-0.646 0.305,-1.726 0.812,-2.02 2.229,-1.285 4.512,-2.535 6.903,-3.466 6.549,-2.555 13.615,0.343 16.334,6.543 2.513,5.732 0.707,12.32 -4.91,16.01 -3.448,2.263 -7.242,4.119 -11.087,5.628 -6.654,2.612 -13.48,4.602 -20.12,7.244 -6.763,2.69 -12.924,5.852 -19.924,8.809 v -2 c 2,-3.035 3.568,-6.33 5.9,-9.057 C -19.895,20.443 -12.751,14.193 -4.62,9.227 -0.866,6.934 0.568,4.19 0,0 Z"
             transform="translate(877.4922,1086.2764)" /><g
             transform="translate(1160.7627,1012.0986)"
             id="g24"
             style="fill:#494440;fill-opacity:0.66666667;stroke:none"><path
               id="path26"
               style="fill:#494440;fill-opacity:0.66666667;stroke:none;stroke-width:1;stroke-linecap:butt;stroke-linejoin:miter;stroke-miterlimit:10;stroke-dasharray:none;stroke-opacity:1"
               d="m 0,0 c -1.051,-1.29 -2.058,-2.629 -2.944,-4.035 -7.405,-11.723 -17.043,-21.302 -28.221,-29.382 -1.522,-1.101 -3.303,-1.987 -5.096,-2.545 -17.515,-5.436 -35.289,-9.892 -53.338,-13.122 -27.537,-4.929 -55.123,-9.586 -82.685,-14.383 -22.894,-3.986 -45.998,-5.179 -69.18,-5.004 -8.127,0.063 -16.078,1.26 -23.04,6.217 -2.812,2.001 -6.11,3.318 -9.187,4.947 -0.146,-0.127 -0.292,-0.252 -0.437,-0.38 1.295,-2.1 2.443,-4.309 3.909,-6.284 9.436,-12.718 22.892,-17.316 37.951,-18.595 13.003,-1.105 25.698,1.421 38.466,3.191 9.918,1.373 19.875,2.098 29.844,0.321 9.105,-1.622 16.611,-5.68 20.495,-14.479 1.933,-4.379 3.822,-9.01 4.442,-13.696 2.483,-18.792 4.545,-37.64 6.593,-56.487 1.214,-11.165 2.091,-22.368 3.167,-33.551 0.149,-1.549 0.576,-3.075 0.875,-4.612 0.223,0.027 0.448,0.055 0.67,0.083 0.053,0.875 0.115,1.749 0.154,2.625 0.153,3.321 -0.316,6.813 0.538,9.942 6.93,25.383 13.843,50.776 21.355,75.988 2.548,8.554 4.744,17.456 10.824,24.661 3.319,3.934 6.613,7.707 11.294,10.012 6.798,3.347 13.532,6.837 20.427,9.973 12.662,5.763 25.433,11.282 38.133,16.964 5.455,2.44 9.949,6.129 13.015,11.283 2.209,3.715 4.243,7.563 6.003,11.507 4.279,9.583 8.353,19.257 12.497,28.898 0.155,0.357 0.178,0.772 0.257,1.13 C 4.003,2.5 1.722,2.113 0,0 Z" /></g><g
             transform="translate(891.8779,1038.209)"
             id="g28"
             style="fill:#494440;fill-opacity:0.66666667;stroke:none"><path
               id="path30"
               style="fill:#494440;fill-opacity:0.66666667;stroke:none;stroke-width:1;stroke-linecap:butt;stroke-linejoin:miter;stroke-miterlimit:10;stroke-dasharray:none;stroke-opacity:1"
               d="m 0,0 c 5.202,0.916 10.489,1.967 14.185,-3.443 0.134,-0.197 0.419,-0.482 0.568,-0.447 1.062,0.26 2.185,0.457 3.11,0.988 0.255,0.147 0.057,1.413 -0.196,2.063 -1.145,2.934 -2.381,5.832 -3.591,8.74 C 13.875,8.387 13.644,8.86 13.667,8.806 11.772,8.423 10.171,7.663 8.72,7.887 c -4.574,0.707 -9.203,1.426 -13.606,2.8 -6.015,1.878 -11.841,4.365 -18.426,6.844 1.28,-8.934 7.766,-12.189 14.096,-15.677 -1.357,-1.64 -2.549,-3.079 -3.601,-4.35 C -8.552,-1.658 -4.29,-0.755 0,0 Z" /></g><g
             transform="translate(890.0801,986.50101)"
             id="g32"
             style="fill:#494440;fill-opacity:0.66666667;stroke:none"><path
               id="path34"
               style="fill:#494440;fill-opacity:0.66666667;stroke:none;stroke-width:1;stroke-linecap:butt;stroke-linejoin:miter;stroke-miterlimit:10;stroke-dasharray:none;stroke-opacity:1"
               d="m 0,0 c 3.787,3.572 7.393,7.364 11.423,10.635 2.704,2.193 4.625,4.663 5.8,7.871 1.252,3.414 0.224,4.994 -3.332,5.417 C 9.443,24.452 5.013,25.149 0.594,25.89 -2.52,26.414 -5.6,27.131 -9.414,27.906 -2.6,19.279 4.043,11.264 0,0 Z" /></g><g
             transform="translate(1463.2041,1004.7451)"
             id="g36"
             style="fill:#494440;fill-opacity:0.66666667;stroke:none"><path
               id="path38"
               style="fill:#494440;fill-opacity:0.66666667;stroke:none;stroke-width:1;stroke-linecap:butt;stroke-linejoin:miter;stroke-miterlimit:10;stroke-dasharray:none;stroke-opacity:1"
               d="m 0,0 c 4.216,-3.667 7.002,-8.588 7.847,-13.854 0.271,-1.698 1.747,-2.906 3.423,-2.906 0.181,0 0.365,0.014 0.551,0.044 1.892,0.3 3.181,2.067 2.879,3.946 C 13.603,-5.915 10.006,0.462 4.574,5.188 -7.943,16.086 -25.919,32.274 -43.301,47.931 -59.395,62.426 -76.636,78.149 -88.731,88.742 l -3.836,-5.981 C -80.482,72.187 -64.187,57.433 -47.963,42.821 -30.56,27.146 -12.564,10.938 0,0 Z" /></g><g
             transform="translate(1388.2041,1119.335)"
             id="g44"
             style="fill:#494440;fill-opacity:0.66666667;stroke:none"><path
               id="path46"
               style="fill:#494440;fill-opacity:0.66666667;stroke:none;stroke-width:1;stroke-linecap:butt;stroke-linejoin:miter;stroke-miterlimit:10;stroke-dasharray:none;stroke-opacity:1"
               d="m 0,0 c -0.356,-0.451 -0.729,-0.891 -1.065,-1.357 -4.474,-6.185 -9.186,-12.172 -14.03,-18.05 -0.754,-0.915 -1.498,-1.839 -2.259,-2.748 -1.577,-1.885 -3.174,-3.753 -4.778,-5.616 -0.423,-0.491 -0.838,-0.989 -1.262,-1.479 l -28.423,-29.069 -20.911,-21.386 c -4.587,-3.893 -9.31,-7.635 -14.201,-11.188 -22.206,-16.135 -45.513,-30.519 -71.326,-40.398 -1.153,-0.441 -1.99,-1.711 -2.974,-2.596 0.144,-0.299 0.289,-0.598 0.431,-0.897 5.586,-1.281 11.123,-2.889 16.774,-3.732 3.997,-0.595 7.12,-1.707 8.622,-5.731 0.224,-0.602 0.739,-1.103 1.149,-1.627 5.486,-7.023 10.977,-14.043 16.477,-21.054 0.127,-0.16 0.392,-0.212 0.336,-0.182 -0.297,6.639 -0.799,13.356 -0.844,20.076 -0.049,7.478 2.256,14.056 8.454,18.86 2.101,1.629 3.984,3.538 5.964,5.322 13.734,12.377 27.827,24.381 41.121,37.212 6.344,6.124 12.436,12.452 18.267,18.988 9.786,10.968 18.809,22.542 26.911,34.823 1.368,2.075 2.71,4.17 4.025,6.286 0.64,1.028 1.27,2.064 1.896,3.103 2.307,3.821 4.537,7.702 6.666,11.659 1.87,3.476 3.758,7.392 5.383,11.06 C 0.271,0.354 0.132,-0.074 0,0 Z" /></g></g></g><path
         style="fill:#e4e2e0;fill-opacity:1;stroke:#4773aa;stroke-width:0.09496033;stroke-opacity:0.4857143"
         d="m 1455.7309,1388.1939 -3.2696,3.2706 14.3148,14.3148 14.3148,14.3147 3.1814,-3.1804 c 1.7497,-1.7491 3.1814,-3.2256 3.1814,-3.281 0,-0.2367 -3.1822,-4.6036 -5.0914,-6.9873 -4.8954,-6.1115 -10.6882,-11.9212 -16.7328,-16.7817 -1.4327,-1.1519 -4.5054,-3.4616 -5.863,-4.4069 l -0.766,-0.5334 z"
         id="path6210" /><path
         style="fill:#e4e2e0;fill-opacity:1;stroke:#4773aa;stroke-width:0.37984133;stroke-opacity:0.4857143"
         d="m 1455.8467,1388.4294 -3.0249,3.0429 14.1401,14.1402 14.1401,14.1401 3.0429,-3.025 c 1.6736,-1.6637 3.0429,-3.1165 3.0429,-3.2283 0,-0.4308 -5.6595,-7.7063 -8.7364,-11.2311 -1.7757,-2.0342 -5.1795,-5.4702 -7.5639,-7.6356 -4.2689,-3.8768 -11.0583,-9.246 -11.6917,-9.246 -0.1782,0 -1.6853,1.3693 -3.3491,3.0428 z"
         id="path6214" /><g
         transform="translate(82.461823)"
         style="font-style:normal;font-weight:normal;font-size:96px;line-height:1.25;font-family:sans-serif;letter-spacing:0px;word-spacing:0px;fill:#000000;fill-opacity:1;stroke:none"
         id="flowRoot6216" /><g
         aria-label="paleblue.fm"
         transform="matrix(1.9572787,-0.03064802,-0.03064802,-1.9572787,-2532.1265,2552.3293)"
         style="font-style:normal;font-weight:normal;font-size:40px;line-height:1.25;font-family:sans-serif;letter-spacing:0px;word-spacing:0px;fill:#000000;fill-opacity:1;stroke:none"
         id="flowRoot6232"><path
           d="m 2222.5625,494.09198 q 0,23.76 -6.96,39.84 -9.36,22.32 -29.52,22.32 -13.2,0 -23.04,-12.24 -1.68,0.72 -1.68,14.88 0,31.2 3.12,44.16 0.24,1.2 2.16,5.76 2.16,4.56 2.16,5.52 0,3.84 -4.8,3.84 -5.76,0 -8.16,-1.68 -2.16,-1.68 -3.84,-11.04 -1.44,-7.92 -1.44,-12.48 v -60.96 q 0,-8.4 0.96,-22.56 0.96,-16.56 1.2,-22.56 0.24,-6.48 0,-16.8 -0.24,-13.2 -0.24,-17.04 0,-16.56 8.64,-16.56 4.32,0 4.32,3.12 0,6 -0.96,17.52 -0.96,11.52 -0.96,17.28 h 0.96 q 5.52,-7.44 11.04,-15.12 6.48,-8.4 16.08,-8.4 16.08,0 24.24,14.4 6.72,11.52 6.72,28.8 z m -11.76,0.96 q 0,-12.72 -2.64,-21.84 -4.08,-13.44 -13.2,-13.44 -6.72,0 -16.32,11.76 -8.4,10.32 -11.76,21.12 -2.64,8.16 -4.32,24 -1.2,11.52 -1.2,11.04 0,0.72 2.16,2.4 1.44,0.96 2.88,2.16 3.84,5.52 7.68,11.28 4.08,5.52 12,5.52 13.2,0 19.92,-21.6 4.8,-15.36 4.8,-32.4 z"
           style="font-style:normal;font-variant:normal;font-weight:300;font-stretch:normal;font-size:192px;font-family:Noteworthy;-inkscape-font-specification:'Noteworthy, Light';font-variant-ligatures:normal;font-variant-caps:normal;font-variant-numeric:normal;font-feature-settings:normal;text-align:start;writing-mode:lr-tb;text-anchor:start;fill:#e31c3d;fill-opacity:1"
           id="path943" /><path
           d="m 2303.5775,559.85198 q 0,3.36 -5.28,3.36 -5.76,0 -6.96,-4.8 -0.24,-0.72 -0.24,-9.36 0,-2.4 -0.72,-3.84 -13.44,9.84 -29.04,9.84 -10.8,0 -20.88,-6 -11.52,-6.72 -11.52,-16.8 0,-9.84 13.68,-19.2 12.48,-8.64 23.04,-8.64 h 23.76 q 1.44,-1.44 1.44,-5.04 0,-16.08 -2.64,-24.24 -4.32,-13.68 -17.04,-13.68 -9.12,0 -16.8,11.52 -6.96,10.56 -6.96,20.16 0,0.48 0,1.44 0,0.96 0,1.2 0,1.92 -1.92,1.92 -2.4,0 -5.28,-2.88 -2.88,-2.88 -2.88,-5.04 0,-6.72 4.08,-16.8 4.08,-10.32 8.88,-15.6 6,-6.48 14.88,-6.48 13.68,0 25.2,8.64 12.24,9.36 12.48,22.56 z m -12.72,-38.16 q 0,-9.6 -14.88,-9.6 -11.76,0 -20.64,4.08 -11.28,5.28 -11.28,15.84 0,6.48 6,10.08 5.04,3.12 12,3.12 10.32,0 19.44,-6.72 9.36,-6.72 9.36,-16.8 z"
           style="font-style:normal;font-variant:normal;font-weight:300;font-stretch:normal;font-size:192px;font-family:Noteworthy;-inkscape-font-specification:'Noteworthy, Light';font-variant-ligatures:normal;font-variant-caps:normal;font-variant-numeric:normal;font-feature-settings:normal;text-align:start;writing-mode:lr-tb;text-anchor:start;fill:#e31c3d;fill-opacity:1"
           id="path945" /><path
           d="m 2338.1975,550.49198 q 0,6.24 -6.72,6.24 -10.56,0 -10.32,-43.44 l 0.72,-107.76 q 0,-2.64 -0.72,-7.44 -0.72,-5.04 -0.72,-7.44 4.56,-3.36 7.68,-3.36 3.36,0 6.72,2.4 3.36,2.4 3.36,5.76 0,2.4 -1.2,6.24 -1.44,4.8 -1.68,6 -2.88,16.32 -2.88,45.6 0,47.28 -0.24,45.6 0.72,29.52 3.84,44.4 0,0.72 0.96,3.36 1.2,2.4 1.2,3.84 z"
           style="font-style:normal;font-variant:normal;font-weight:300;font-stretch:normal;font-size:192px;font-family:Noteworthy;-inkscape-font-specification:'Noteworthy, Light';font-variant-ligatures:normal;font-variant-caps:normal;font-variant-numeric:normal;font-feature-settings:normal;text-align:start;writing-mode:lr-tb;text-anchor:start;fill:#e31c3d;fill-opacity:1"
           id="path947" /><path
           d="m 2420.3825,529.13198 q 0,10.56 -14.16,18.96 -12.72,7.68 -24,7.68 -32.16,0 -32.16,-40.8 0,-18 6.48,-38.64 8.64,-26.88 22.08,-26.88 11.52,0 25.2,11.76 13.68,11.52 13.68,23.04 0,14.88 -12,25.92 -12,11.04 -27.12,11.04 -1.44,0 -6.24,-2.4 -4.56,-2.4 -6.24,-2.4 -3.12,0 -3.12,1.92 0,27.6 18.24,27.6 9.36,0 17.28,-6.24 4.8,-3.6 10.56,-11.28 4.56,-6 6,-6 5.52,0 5.52,6.72 z m -16.56,-44.16 q 0,-8.4 -4.8,-15.6 -4.8,-7.44 -12.72,-7.44 -9.6,0 -15.6,12 -5.04,10.08 -5.04,20.88 0,6.96 4.32,11.76 4.56,4.56 11.52,4.56 9.84,0 16.32,-8.4 6,-7.68 6,-17.76 z"
           style="font-style:normal;font-variant:normal;font-weight:300;font-stretch:normal;font-size:192px;font-family:Noteworthy;-inkscape-font-specification:'Noteworthy, Light';font-variant-ligatures:normal;font-variant-caps:normal;font-variant-numeric:normal;font-feature-settings:normal;text-align:start;writing-mode:lr-tb;text-anchor:start;fill:#e31c3d;fill-opacity:1"
           id="path949" /><path
           d="m 2501.1425,499.61198 q 0,20.88 -5.76,35.04 -7.92,19.68 -25.92,19.68 -4.56,0 -12.24,-2.64 -6,-2.16 -12,-4.32 -0.48,1.44 -0.48,3.12 0,1.2 0.24,3.36 0.24,2.4 0.24,3.6 0,3.6 -4.08,3.6 -4.08,0 -6.72,-3.36 -1.68,-1.68 -2.64,-14.16 -0.72,-9.84 -0.72,-15.36 v -1.44 l 4.56,-133.92 h 3.36 q 3.36,0 6.24,3.6 3.12,3.36 3.12,6.96 0,8.88 -2.4,26.4 -2.16,17.52 -2.16,26.4 0,0.96 0,9.12 1.92,-0.72 4.8,-5.52 3.6,-6 6.24,-8.4 4.8,-4.32 11.76,-4.32 11.76,0 21.36,9.6 8.64,8.64 11.52,20.88 1.68,8.16 1.68,22.08 z m -12.72,1.44 q 0,-14.88 -3.12,-25.68 -4.56,-16.8 -15.36,-16.8 -13.2,0 -20.88,19.44 -6,15.36 -6,30.96 0,13.92 4.8,23.76 6,13.2 18.24,13.2 12.24,0 18.24,-17.28 4.08,-12.24 4.08,-27.6 z"
           style="font-style:normal;font-variant:normal;font-weight:300;font-stretch:normal;font-size:192px;font-family:Noteworthy;-inkscape-font-specification:'Noteworthy, Light';font-variant-ligatures:normal;font-variant-caps:normal;font-variant-numeric:normal;font-feature-settings:normal;text-align:start;writing-mode:lr-tb;text-anchor:start;fill:#e31c3d;fill-opacity:1"
           id="path951" /><path
           d="m 2534.6975,550.49198 q 0,6.24 -6.72,6.24 -10.56,0 -10.32,-43.44 l 0.72,-107.76 q 0,-2.64 -0.72,-7.44 -0.72,-5.04 -0.72,-7.44 4.56,-3.36 7.68,-3.36 3.36,0 6.72,2.4 3.36,2.4 3.36,5.76 0,2.4 -1.2,6.24 -1.44,4.8 -1.68,6 -2.88,16.32 -2.88,45.6 0,47.28 -0.24,45.6 0.72,29.52 3.84,44.4 0,0.72 0.96,3.36 1.2,2.4 1.2,3.84 z"
           style="font-style:normal;font-variant:normal;font-weight:300;font-stretch:normal;font-size:192px;font-family:Noteworthy;-inkscape-font-specification:'Noteworthy, Light';font-variant-ligatures:normal;font-variant-caps:normal;font-variant-numeric:normal;font-feature-settings:normal;text-align:start;writing-mode:lr-tb;text-anchor:start;fill:#e31c3d;fill-opacity:1"
           id="path953" /><path
           d="m 2615.2025,463.13198 q 0,7.44 -1.68,22.32 -1.44,14.64 -1.44,25.44 0,4.32 0.72,16.56 0.96,12 0.96,17.28 0,10.56 -2.4,12.72 -1.44,0.96 -4.08,0.96 -5.28,0 -7.2,-4.56 -0.96,-4.56 -1.92,-8.88 -6.96,10.32 -23.76,12.96 -6.24,0.96 -14.4,-5.52 -7.44,-5.76 -9.84,-11.52 -3.36,-7.92 -3.36,-30.48 v -52.08 q -1.44,-7.2 8.16,-7.2 6.72,0 6.72,7.68 0,11.52 -0.72,30 -0.72,23.52 -0.72,30 -0.24,8.64 3.84,17.28 4.8,10.32 12.24,10.32 12.24,0 18.96,-16.32 4.8,-12.24 4.8,-26.88 v -31.44 q 0,-1.92 -1.44,-5.28 -1.2,-3.6 -1.2,-5.76 0,-1.2 0.24,-2.64 3.36,-3.12 6.72,-3.36 10.8,-0.96 10.8,8.4 z"
           style="font-style:normal;font-variant:normal;font-weight:300;font-stretch:normal;font-size:192px;font-family:Noteworthy;-inkscape-font-specification:'Noteworthy, Light';font-variant-ligatures:normal;font-variant-caps:normal;font-variant-numeric:normal;font-feature-settings:normal;text-align:start;writing-mode:lr-tb;text-anchor:start;fill:#e31c3d;fill-opacity:1"
           id="path955" /><path
           d="m 2696.3825,529.13198 q 0,10.56 -14.16,18.96 -12.72,7.68 -24,7.68 -32.16,0 -32.16,-40.8 0,-18 6.48,-38.64 8.64,-26.88 22.08,-26.88 11.52,0 25.2,11.76 13.68,11.52 13.68,23.04 0,14.88 -12,25.92 -12,11.04 -27.12,11.04 -1.44,0 -6.24,-2.4 -4.56,-2.4 -6.24,-2.4 -3.12,0 -3.12,1.92 0,27.6 18.24,27.6 9.36,0 17.28,-6.24 4.8,-3.6 10.56,-11.28 4.56,-6 6,-6 5.52,0 5.52,6.72 z m -16.56,-44.16 q 0,-8.4 -4.8,-15.6 -4.8,-7.44 -12.72,-7.44 -9.6,0 -15.6,12 -5.04,10.08 -5.04,20.88 0,6.96 4.32,11.76 4.56,4.56 11.52,4.56 9.84,0 16.32,-8.4 6,-7.68 6,-17.76 z"
           style="font-style:normal;font-variant:normal;font-weight:300;font-stretch:normal;font-size:192px;font-family:Noteworthy;-inkscape-font-specification:'Noteworthy, Light';font-variant-ligatures:normal;font-variant-caps:normal;font-variant-numeric:normal;font-feature-settings:normal;text-align:start;writing-mode:lr-tb;text-anchor:start;fill:#e31c3d;fill-opacity:1"
           id="path957" /><path
           d="m 2728.1825,547.85198 q 0,3.36 -4.56,5.76 -3.6,1.92 -7.44,1.92 -4.08,0 -7.2,-2.88 -3.12,-2.88 -3.12,-6.72 0,-8.16 8.4,-8.16 4.8,0 9.36,2.88 4.56,2.64 4.56,7.2 z"
           style="font-style:normal;font-variant:normal;font-weight:300;font-stretch:normal;font-size:192px;font-family:Noteworthy;-inkscape-font-specification:'Noteworthy, Light';font-variant-ligatures:normal;font-variant-caps:normal;font-variant-numeric:normal;font-feature-settings:normal;text-align:start;writing-mode:lr-tb;text-anchor:start;fill:#e31c3d;fill-opacity:1"
           id="path959" /><path
           d="m 2816.4575,404.81198 q 0,4.8 -7.2,4.8 -1.44,0 -2.16,-0.48 -0.96,-10.08 -13.44,-10.08 -11.76,0 -18.24,26.88 -4.32,18.96 -4.32,36.24 1.68,-0.24 4.32,0 5.76,0 6.48,0 8.88,0 8.88,5.28 0,1.68 -0.48,4.8 -3.84,2.16 -12,2.16 -6.24,0 -7.68,0.96 -0.72,9.36 -0.72,33.84 v 17.28 q 0,11.52 2.64,23.28 0.48,1.2 0.48,2.16 0,5.76 -8.16,5.76 -7.2,0 -7.2,-19.44 0,-52.8 0.96,-62.4 0.48,0 -12.24,0 -5.52,0 -5.52,-5.28 0,-6.96 9.6,-6.96 h 8.64 q 0.48,-4.8 0.96,-12.24 3.6,-63.84 35.76,-63.84 20.64,0 20.64,17.28 z"
           style="font-style:normal;font-variant:normal;font-weight:300;font-stretch:normal;font-size:192px;font-family:Noteworthy;-inkscape-font-specification:'Noteworthy, Light';font-variant-ligatures:normal;font-variant-caps:normal;font-variant-numeric:normal;font-feature-settings:normal;text-align:start;writing-mode:lr-tb;text-anchor:start;fill:#e31c3d;fill-opacity:1"
           id="path961" /><path
           d="m 2911.7225,554.33198 q -5.04,3.12 -7.68,3.12 -1.68,0 -4.8,-1.68 0.24,-3.84 0.24,-12.96 0.24,-8.4 0.24,-12.96 0,-73.92 -15.36,-73.92 -9.12,0 -15.84,23.04 -5.28,18.48 -5.28,31.2 v 24 q 0,1.92 0.96,5.52 1.2,3.36 1.2,5.04 0,1.92 -2.64,3.84 -2.64,1.92 -4.56,1.92 -2.16,0 -4.8,-2.88 -2.64,-3.12 -2.64,-5.28 v -48.24 q 0,-7.68 -2.64,-19.44 -3.36,-14.88 -8.16,-14.88 -2.64,0 -7.92,6.72 -18,23.04 -18,56.64 0,4.08 0.96,12.24 0.96,7.92 0.96,11.76 0,7.2 -6,7.2 -2.88,0 -5.04,-2.4 -0.96,-1.2 -2.16,-10.8 -1.2,-8.64 -1.2,-11.76 v -56.64 q 0,-24.48 5.76,-24.48 2.4,0 4.8,2.4 2.64,2.16 2.64,4.56 0,5.04 -1.44,13.2 -1.44,10.56 -1.68,13.2 l 1.2,1.2 q 4.56,-10.32 9.12,-20.64 6.48,-13.2 15.36,-13.2 12.48,0 21.6,26.88 2.4,-2.88 6,-12 3.6,-9.12 6.48,-12.96 4.56,-5.76 11.28,-5.76 6.48,0 14.4,8.64 14.64,15.6 14.64,56.4 z"
           style="font-style:normal;font-variant:normal;font-weight:300;font-stretch:normal;font-size:192px;font-family:Noteworthy;-inkscape-font-specification:'Noteworthy, Light';font-variant-ligatures:normal;font-variant-caps:normal;font-variant-numeric:normal;font-feature-settings:normal;text-align:start;writing-mode:lr-tb;text-anchor:start;fill:#e31c3d;fill-opacity:1"
           id="path963" /></g></g></g></svg>