<?xml version="1.0" standalone="no"?>
<!DOCTYPE svg PUBLIC "-//W3C//DTD SVG 20010904//EN"
 "https://www.w3.org/TR/2001/REC-SVG-20010904/DTD/svg10.dtd">
<svg version="1.0" xmlns="https://www.w3.org/2000/svg"
 width="2000.000000pt" height="2000.000000pt" viewBox="0 0 2000.000000 2000.000000"
 preserveAspectRatio="xMidYMid meet">
<metadata>
Created by potrace 1.11, written by Peter Selinger 2001-2013
</metadata>
<g transform="translate(0.000000,2000.000000) scale(0.100000,-0.100000)"
fill="#000000" stroke="none">
<path d="M13115 19967 c-16 -12 -31 -25 -33 -29 -2 -5 -9 -8 -15 -8 -6 0 -36
-26 -66 -57 -31 -32 -57 -56 -58 -55 -1 1 -29 -25 -62 -58 -33 -33 -58 -60
-56 -60 2 0 -6 -10 -18 -23 -12 -13 -25 -22 -29 -20 -5 2 -8 1 -8 -4 0 -15
-72 -88 -83 -85 -7 2 -9 0 -5 -4 11 -10 -12 -35 -25 -27 -5 3 -7 1 -3 -5 3 -6
-3 -17 -14 -25 -11 -7 -17 -17 -13 -20 3 -4 -2 -7 -12 -7 -10 0 -16 -3 -12 -6
3 -3 -12 -23 -34 -45 -21 -21 -39 -43 -39 -49 0 -6 -3 -9 -7 -7 -5 3 -14 -1
-21 -9 -7 -8 -11 -14 -8 -14 2 0 -15 -19 -37 -43 -23 -24 -59 -62 -79 -84 -20
-23 -39 -39 -42 -35 -3 3 -6 -1 -6 -9 0 -8 -18 -29 -39 -48 -41 -36 -93 -48
-120 -27 -11 8 -13 8 -7 -1 4 -7 3 -13 -3 -13 -5 0 -13 5 -16 10 -3 6 -14 7
-23 2 -9 -4 -106 -7 -214 -7 -109 0 -198 -2 -198 -5 0 -3 -38 -5 -85 -5 -47 0
-85 -2 -85 -5 0 -3 -24 -6 -52 -6 -48 -1 -143 -10 -143 -14 0 -1 -18 -4 -40
-6 -64 -8 -124 -17 -190 -30 -11 -3 -35 -7 -54 -10 -18 -3 -43 -8 -55 -11 -11
-3 -29 -6 -38 -6 -10 -1 -18 -5 -18 -9 0 -4 -3 -7 -7 -6 -7 2 -88 -12 -103
-17 -3 -1 -18 -5 -35 -9 -16 -4 -37 -10 -45 -13 -8 -4 -18 -6 -22 -5 -4 1 -25
-5 -48 -13 -23 -8 -46 -12 -51 -9 -5 3 -9 1 -9 -5 0 -6 -17 -13 -37 -17 -21
-4 -43 -10 -49 -15 -6 -5 -19 -10 -30 -12 -10 -1 -25 -6 -31 -10 -7 -5 -17 -6
-22 -3 -5 4 -11 1 -13 -5 -2 -7 -13 -13 -24 -13 -11 -1 -26 -6 -34 -11 -8 -5
-24 -11 -35 -12 -10 -2 -34 -12 -53 -23 -18 -11 -30 -15 -26 -9 4 7 -7 2 -24
-11 -16 -12 -35 -19 -41 -16 -6 4 -11 4 -11 -1 0 -7 -96 -57 -112 -58 -4 0
-13 -6 -20 -12 -6 -7 -16 -13 -20 -13 -5 0 -26 -11 -47 -24 -21 -14 -41 -22
-45 -19 -3 3 -8 -2 -12 -11 -3 -9 -10 -13 -15 -10 -5 3 -9 0 -9 -6 0 -6 -4 -8
-10 -5 -5 3 -10 1 -10 -4 0 -6 -7 -11 -15 -11 -8 0 -15 -5 -15 -12 0 -6 -3 -9
-6 -5 -3 3 -15 -3 -27 -14 -11 -10 -27 -19 -34 -19 -7 0 -13 -3 -13 -7 0 -5
-17 -19 -38 -33 -20 -14 -48 -35 -62 -47 -14 -13 -31 -23 -38 -23 -7 0 -10 -4
-7 -10 3 -5 3 -10 -2 -10 -8 0 -40 -26 -101 -80 -18 -17 -37 -30 -43 -30 -6 0
-8 -3 -6 -7 3 -5 -13 -21 -34 -38 -21 -16 -38 -36 -39 -42 0 -7 -5 -13 -10
-13 -6 0 -32 -23 -58 -51 -26 -29 -60 -65 -75 -80 -16 -16 -26 -29 -23 -29 3
0 -14 -18 -36 -40 -23 -22 -38 -40 -34 -40 5 0 -3 -11 -18 -25 -14 -13 -26
-29 -26 -34 0 -5 -10 -17 -22 -25 -12 -9 -18 -16 -13 -16 5 0 -1 -9 -12 -20
-12 -10 -24 -29 -28 -40 -4 -11 -11 -18 -16 -15 -5 4 -9 0 -9 -8 0 -7 -9 -23
-20 -35 -11 -12 -20 -24 -20 -27 0 -8 -43 -68 -55 -77 -7 -5 -7 -8 0 -8 6 0 2
-5 -8 -11 -9 -6 -15 -14 -12 -20 4 -5 1 -9 -5 -9 -6 0 -8 -5 -5 -10 3 -6 -1
-13 -9 -16 -9 -3 -14 -10 -11 -14 3 -4 -2 -11 -11 -14 -8 -3 -12 -10 -9 -16 3
-5 1 -10 -5 -10 -6 0 -8 -4 -5 -10 3 -5 1 -10 -5 -10 -6 0 -9 -4 -5 -9 3 -5
-4 -16 -15 -24 -11 -7 -17 -17 -14 -20 3 -3 -3 -19 -15 -35 -12 -17 -21 -35
-21 -41 0 -6 -4 -11 -10 -11 -5 0 -9 -3 -8 -7 2 -13 -20 -61 -32 -68 -5 -3 -8
-10 -5 -15 3 -5 -2 -16 -11 -24 -8 -9 -13 -16 -10 -16 3 0 -6 -21 -19 -46 -14
-26 -25 -53 -25 -60 0 -7 -6 -19 -12 -26 -13 -14 -20 -33 -21 -55 0 -7 -4 -13
-9 -13 -4 0 -8 -9 -8 -20 0 -11 -4 -20 -10 -20 -5 0 -9 -3 -9 -7 1 -5 0 -11
-1 -15 -1 -5 -3 -11 -4 -15 -2 -11 -26 -74 -38 -99 -11 -23 -54 -48 -68 -39
-4 3 -11 -2 -14 -10 -3 -8 -9 -15 -13 -14 -4 1 -11 0 -15 -1 -5 -1 -11 -3 -15
-4 -5 -1 -18 -7 -29 -14 -12 -6 -24 -8 -28 -5 -3 3 -6 1 -6 -6 0 -7 -4 -9 -10
-6 -5 3 -10 1 -10 -4 0 -6 -6 -11 -12 -11 -18 0 -291 -139 -299 -152 -3 -5
-10 -10 -15 -10 -23 -2 -44 -11 -44 -19 0 -5 -5 -9 -11 -9 -6 0 -23 -9 -39
-20 -15 -11 -30 -17 -34 -13 -3 3 -6 1 -6 -6 0 -7 -4 -10 -9 -7 -5 3 -12 -1
-15 -9 -3 -8 -9 -14 -13 -13 -4 1 -37 -16 -73 -39 -36 -23 -69 -43 -75 -44 -5
-1 -15 -9 -22 -18 -7 -9 -13 -12 -13 -7 0 5 -8 -1 -19 -12 -10 -12 -21 -19
-25 -15 -3 3 -6 1 -6 -6 0 -7 -4 -10 -9 -7 -5 3 -11 -1 -15 -9 -3 -8 -12 -15
-21 -15 -8 0 -15 -5 -15 -11 0 -5 -4 -7 -10 -4 -5 3 -10 2 -10 -4 0 -5 -17
-20 -37 -32 -21 -13 -41 -28 -45 -33 -4 -6 -8 -7 -8 -3 0 4 -10 -2 -22 -13
-13 -12 -35 -29 -50 -38 -16 -9 -28 -20 -28 -24 0 -4 -7 -8 -15 -8 -8 0 -15
-4 -15 -9 0 -6 -17 -20 -38 -33 -36 -21 -110 -79 -153 -120 -11 -10 -19 -16
-19 -12 0 3 -11 -7 -25 -22 -14 -15 -25 -24 -25 -21 0 3 -10 -4 -23 -16 -61
-58 -106 -97 -110 -97 -3 0 -35 -29 -72 -65 -36 -36 -71 -65 -76 -65 -6 0 -7
-4 -4 -10 3 -5 1 -10 -4 -10 -6 0 -29 -18 -51 -40 -22 -22 -45 -40 -51 -40 -5
0 -8 -4 -5 -8 3 -5 -10 -23 -29 -40 -19 -16 -35 -35 -35 -42 0 -6 -4 -9 -10
-5 -5 3 -16 -7 -24 -22 -8 -15 -15 -24 -16 -20 0 11 -50 -44 -50 -55 0 -5 -4
-6 -10 -3 -5 3 -10 2 -10 -4 0 -5 -24 -35 -54 -65 -29 -31 -64 -69 -77 -85
-13 -16 -28 -27 -33 -24 -5 3 -6 2 -3 -4 3 -5 -2 -16 -11 -25 -9 -8 -35 -36
-57 -62 -22 -26 -57 -65 -77 -87 -20 -22 -38 -43 -39 -47 0 -4 -5 -6 -10 -4
-5 1 -8 -1 -7 -6 3 -8 -15 -32 -44 -60 -10 -9 -18 -22 -18 -29 0 -23 -68 -32
-285 -36 -60 -2 -116 -6 -122 -10 -7 -5 -13 -5 -13 0 0 11 -154 10 -162 -1 -4
-6 -12 -5 -21 2 -7 7 -17 9 -21 5 -3 -4 -61 -8 -129 -10 -278 -6 -364 -10
-375 -17 -6 -3 -13 -2 -17 4 -4 7 -12 7 -26 0 -13 -8 -19 -7 -19 0 0 6 -5 8
-12 4 -6 -4 -45 -9 -87 -11 -42 -2 -100 -4 -128 -6 -29 -1 -53 -5 -53 -9 0 -4
-11 -3 -25 2 -14 5 -25 6 -25 1 0 -4 -17 -8 -38 -9 -20 -1 -57 -5 -82 -8 -25
-4 -55 -7 -67 -8 -13 0 -23 -4 -23 -8 0 -4 -9 -5 -21 -3 -11 2 -28 0 -37 -5
-26 -13 -56 -23 -65 -21 -5 1 -6 -3 -2 -9 3 -5 -2 -10 -11 -10 -10 0 -14 -3
-11 -6 3 -4 0 -16 -8 -28 -8 -11 -15 -28 -15 -38 0 -10 -4 -18 -8 -18 -4 0 -8
-8 -9 -17 -1 -10 -4 -40 -8 -68 -3 -27 -8 -88 -9 -135 -2 -47 -5 -89 -6 -95
-1 -5 -1 -12 0 -15 1 -3 4 -34 5 -70 2 -36 4 -65 5 -65 1 0 3 -21 5 -46 1 -25
5 -50 8 -57 4 -6 3 -13 -3 -17 -6 -4 -7 -12 -3 -18 4 -7 9 -19 10 -27 8 -39
15 -87 16 -107 1 -13 4 -23 7 -23 7 0 12 -41 13 -94 0 -27 -6 -43 -18 -53 -11
-7 -15 -13 -10 -13 12 0 -75 -77 -105 -92 -14 -7 -28 -17 -32 -22 -3 -5 -14
-11 -23 -12 -9 -1 -25 -10 -34 -18 -10 -9 -21 -13 -24 -9 -4 3 -7 1 -7 -5 0
-7 -3 -11 -7 -10 -11 2 -107 -45 -111 -55 -2 -4 -8 -5 -13 -1 -5 3 -9 0 -9 -7
0 -7 -3 -9 -7 -6 -3 4 -17 0 -30 -8 -13 -9 -23 -13 -23 -10 0 4 -7 -1 -16 -9
-8 -9 -20 -14 -25 -11 -5 4 -9 2 -9 -4 0 -6 -12 -14 -27 -17 -16 -4 -38 -16
-50 -27 -13 -11 -23 -17 -23 -13 0 7 -14 -3 -50 -36 -10 -9 -21 -14 -23 -11
-3 2 -8 -5 -12 -16 -3 -12 -10 -21 -15 -21 -12 0 -39 -73 -45 -121 -3 -23 -8
-45 -11 -50 -3 -5 -1 -9 5 -9 10 0 9 -25 -2 -36 -4 -4 -3 -12 1 -18 10 -12 37
-124 35 -143 0 -7 4 -13 9 -13 7 0 6 -5 -1 -14 -7 -9 -30 -13 -61 -12 -28 1
-50 -1 -50 -5 0 -3 -12 -6 -27 -7 -16 -1 -43 -3 -60 -5 -18 -1 -33 -6 -33 -10
0 -4 -6 -7 -13 -5 -14 2 -86 -30 -104 -48 -7 -6 -9 -14 -6 -18 4 -3 1 -6 -5
-6 -7 0 -12 -9 -12 -20 0 -11 -3 -20 -7 -20 -5 0 -9 -17 -9 -38 -1 -20 -5 -55
-9 -77 -5 -22 -9 -53 -11 -70 -1 -16 -3 -30 -4 -30 -1 0 -3 -11 -4 -25 0 -14
-3 -29 -6 -35 -3 -5 -5 -31 -5 -57 0 -27 -4 -48 -8 -48 -5 0 -7 -6 -4 -12 2
-7 0 -23 -4 -36 -5 -12 -11 -33 -13 -45 -12 -55 -15 -66 -35 -108 -12 -24 -31
-55 -42 -69 -11 -14 -17 -18 -13 -10 4 8 -8 -1 -27 -20 -20 -19 -46 -42 -58
-50 -13 -8 -30 -21 -37 -28 -8 -7 -14 -10 -14 -5 0 4 -4 3 -8 -2 -4 -6 -23
-22 -42 -35 -19 -13 -38 -29 -42 -35 -4 -5 -8 -6 -8 -2 0 4 -10 -1 -22 -13
-12 -11 -28 -20 -35 -20 -7 0 -13 -4 -13 -10 0 -5 -16 -17 -35 -26 -19 -9 -35
-19 -35 -23 0 -4 -15 -15 -33 -26 -34 -20 -47 -30 -78 -57 -10 -10 -19 -15
-19 -10 0 4 -4 2 -8 -4 -4 -7 -27 -28 -52 -49 -24 -20 -55 -51 -67 -68 -13
-17 -23 -27 -24 -21 -1 31 -55 -131 -65 -196 -8 -59 -9 -65 -17 -76 -3 -6 -4
-14 0 -17 10 -11 9 -97 -2 -97 -7 0 -7 -3 0 -8 6 -4 11 -25 12 -47 1 -22 4
-51 8 -65 4 -14 8 -36 9 -50 1 -14 8 -35 15 -47 6 -13 9 -23 5 -23 -3 0 -1 -7
6 -15 7 -8 9 -15 4 -15 -4 0 -3 -5 4 -12 7 -7 12 -20 12 -30 0 -10 5 -18 11
-18 5 0 8 -4 5 -9 -3 -4 1 -17 9 -27 8 -10 15 -25 15 -32 0 -7 7 -20 15 -29 8
-8 13 -19 10 -24 -4 -5 -1 -9 4 -9 6 0 11 -5 11 -10 0 -6 9 -20 20 -32 11 -12
20 -28 20 -35 0 -7 5 -13 10 -13 6 0 10 -4 10 -10 0 -5 8 -18 18 -28 9 -10 24
-29 32 -41 8 -12 32 -41 52 -64 21 -23 38 -45 38 -49 0 -5 7 -8 15 -8 8 0 15
-5 15 -10 0 -9 19 -29 131 -135 21 -19 42 -35 49 -35 6 0 8 -4 5 -10 -3 -5 1
-10 10 -10 10 0 13 -5 9 -12 -4 -6 -3 -8 3 -5 5 4 24 -8 41 -25 18 -16 32 -28
32 -24 0 6 7 0 68 -51 15 -13 30 -23 34 -23 4 0 19 -11 33 -24 23 -21 25 -28
15 -47 -9 -15 -9 -19 -1 -14 8 4 10 -1 6 -17 -4 -13 -7 -31 -8 -39 -2 -8 -6
-20 -10 -26 -5 -8 -3 -13 3 -13 6 0 8 -5 5 -11 -7 -10 -16 -85 -19 -139 0 -14
-5 -28 -11 -32 -6 -5 -5 -8 3 -8 8 0 10 -5 5 -12 -7 -13 -14 -88 -16 -175 0
-27 -4 -40 -11 -36 -6 4 -5 0 1 -9 7 -8 10 -18 7 -21 -10 -9 -12 -509 -3 -535
5 -14 5 -22 -2 -22 -6 0 -8 -9 -4 -20 4 -11 9 -75 11 -143 7 -170 12 -282 14
-282 1 0 3 -20 5 -45 4 -66 13 -154 16 -165 4 -15 -19 -65 -30 -65 -6 0 -17
-12 -25 -27 -8 -16 -17 -27 -20 -25 -3 1 -6 0 -6 -3 0 -3 -34 -39 -75 -81 -41
-42 -75 -78 -75 -81 0 -2 -48 -52 -106 -110 -59 -58 -101 -102 -94 -98 8 5
-18 -23 -56 -61 -38 -38 -79 -82 -92 -98 -12 -16 -22 -25 -22 -20 0 4 -11 -6
-23 -24 -13 -17 -27 -29 -30 -25 -4 3 -7 -1 -7 -10 0 -9 -11 -24 -25 -33 -13
-9 -27 -24 -30 -35 -4 -10 -9 -18 -13 -16 -4 1 -8 -1 -9 -6 -2 -4 -25 -30 -53
-57 -27 -27 -50 -51 -50 -54 0 -3 -10 -16 -22 -29 -13 -13 -47 -49 -76 -80
-28 -31 -52 -60 -52 -66 0 -6 -7 -11 -16 -11 -8 0 -13 -4 -10 -9 3 -5 -5 -20
-18 -34 -36 -38 -116 -144 -116 -153 0 -4 -7 -15 -16 -25 -9 -10 -22 -34 -29
-55 -10 -31 -10 -43 1 -69 7 -18 10 -35 7 -39 -4 -3 -2 -6 4 -6 6 0 16 -13 23
-30 7 -16 16 -30 21 -30 4 0 10 -8 13 -17 3 -10 17 -30 30 -44 14 -15 22 -30
18 -35 -4 -4 -1 -4 6 0 9 5 15 1 19 -13 3 -11 8 -19 12 -17 3 2 17 -11 31 -30
14 -18 33 -36 43 -40 9 -3 15 -10 12 -15 -4 -5 -2 -9 4 -9 9 0 49 -35 111 -95
14 -14 31 -25 38 -25 7 0 10 -4 7 -10 -3 -5 -1 -10 4 -10 11 0 38 -20 73 -53
10 -9 18 -14 18 -10 0 5 4 3 8 -2 4 -6 27 -24 52 -40 25 -16 48 -34 52 -40 4
-5 8 -6 8 -1 0 10 59 -49 61 -61 6 -33 4 -155 -3 -159 -4 -3 -8 -15 -8 -28 0
-12 -3 -26 -7 -29 -6 -6 -12 -38 -15 -74 -1 -7 -5 -13 -10 -13 -5 0 -7 -4 -3
-9 3 -5 1 -12 -5 -16 -6 -4 -8 -11 -5 -16 4 -5 1 -9 -5 -9 -6 0 -8 -4 -5 -10
3 -5 1 -19 -5 -31 -7 -11 -14 -33 -16 -47 -3 -15 -8 -29 -12 -32 -4 -3 -8 -14
-10 -25 -2 -11 -11 -37 -21 -57 -10 -21 -14 -35 -9 -32 6 4 4 -4 -3 -17 -7
-13 -12 -28 -11 -33 2 -4 -2 -14 -8 -20 -5 -7 -7 -16 -4 -19 3 -3 2 -11 -2
-18 -4 -7 -9 -22 -11 -34 -1 -11 -4 -32 -6 -48 -3 -15 0 -30 5 -33 5 -3 7 -12
4 -20 -3 -7 -1 -16 5 -19 5 -4 7 -11 4 -16 -4 -5 -2 -9 4 -9 5 0 13 -9 16 -21
9 -27 88 -106 145 -144 25 -17 46 -33 48 -37 2 -4 10 -4 18 -1 8 3 14 0 14 -5
0 -6 7 -12 16 -14 13 -2 9 -10 -15 -36 -18 -18 -29 -37 -26 -42 3 -6 1 -10 -5
-10 -6 0 -15 -11 -22 -25 -6 -13 -15 -22 -19 -19 -5 3 -9 -1 -9 -9 0 -7 -9
-23 -19 -34 -11 -12 -17 -24 -14 -27 4 -3 1 -6 -5 -6 -7 0 -11 -3 -10 -7 1 -5
-3 -18 -10 -29 -6 -12 -8 -24 -5 -28 3 -3 2 -6 -3 -6 -12 0 -12 -45 0 -80 9
-26 75 -123 88 -128 5 -2 8 -8 8 -13 0 -8 26 -42 57 -74 7 -7 9 -15 6 -19 -4
-3 1 -6 11 -6 9 0 15 -4 12 -8 -3 -5 8 -24 25 -43 16 -19 29 -40 29 -47 0 -7
4 -10 10 -7 9 5 12 -1 9 -21 0 -4 3 -10 8 -13 16 -11 55 -71 46 -71 -4 0 -1
-5 7 -10 8 -5 16 -14 16 -20 1 -5 2 -11 4 -12 2 -3 5 -15 18 -68 11 -47 5
-133 -17 -232 -5 -20 -6 -39 -3 -43 3 -3 1 -5 -4 -5 -6 0 -9 -13 -8 -30 1 -16
-1 -30 -5 -30 -4 0 -7 -12 -6 -28 0 -15 -5 -46 -12 -69 -6 -24 -9 -43 -6 -43
3 0 0 -7 -7 -15 -9 -11 -9 -15 -1 -15 9 0 9 -5 1 -20 -6 -11 -11 -36 -12 -55
-1 -19 -4 -35 -7 -35 -6 0 -8 -20 -13 -163 -2 -48 0 -87 3 -87 3 0 4 -11 1
-25 -2 -15 0 -25 7 -25 6 0 11 -7 11 -16 0 -9 9 -29 21 -45 11 -16 18 -29 15
-29 -3 0 3 -9 14 -20 11 -11 20 -26 20 -33 0 -7 9 -18 20 -25 12 -7 18 -17 15
-22 -3 -6 1 -10 9 -10 9 0 16 -4 16 -10 0 -11 97 -109 103 -104 2 2 14 -7 27
-21 13 -14 28 -25 35 -25 6 0 18 -9 28 -20 10 -12 22 -18 27 -15 6 4 13 -1 16
-9 3 -9 14 -16 23 -16 9 0 31 -9 49 -20 17 -11 32 -17 32 -14 0 4 11 -1 25
-10 13 -9 33 -16 45 -16 11 0 20 -5 20 -11 0 -6 6 -9 14 -6 8 3 17 3 20 -1 7
-6 11 -7 71 -18 22 -4 43 -12 47 -18 5 -7 8 -7 8 2 0 8 5 10 13 5 6 -4 19 -8
27 -10 8 -1 35 -5 60 -9 54 -8 420 -12 425 -4 2 3 26 5 54 5 28 0 51 3 51 6 0
4 13 5 30 4 16 -1 30 0 30 4 0 4 10 7 23 7 19 1 82 9 142 20 11 2 35 5 53 8
18 3 37 8 42 11 6 3 10 0 10 -7 0 -8 3 -9 8 -3 4 6 12 11 18 12 20 4 127 14
197 18 38 3 72 7 77 10 5 3 11 1 15 -5 4 -6 13 -7 23 -2 19 9 148 8 257 -3 39
-3 78 -7 88 -8 9 -1 17 -4 17 -8 0 -4 9 -5 20 -2 11 3 20 0 20 -6 0 -6 3 -10
7 -9 14 5 113 -25 113 -34 0 -4 7 -8 16 -8 16 0 76 -38 82 -52 2 -4 9 -8 16
-8 6 0 27 -18 46 -41 19 -22 43 -50 53 -62 20 -24 51 -87 49 -99 -1 -5 3 -8
10 -8 6 0 9 -3 5 -6 -3 -3 3 -22 14 -41 11 -19 14 -31 7 -27 -7 5 -5 -4 5 -19
9 -14 18 -38 19 -52 1 -14 5 -25 8 -25 3 0 7 -8 8 -17 2 -22 10 -58 12 -58 3
0 19 -92 25 -145 2 -14 4 -25 5 -25 1 0 3 -13 5 -30 1 -16 5 -43 8 -60 3 -16
8 -57 12 -89 3 -33 8 -73 11 -90 5 -35 13 -109 18 -176 2 -25 7 -70 11 -100 4
-30 9 -80 10 -110 2 -30 5 -55 6 -55 1 0 3 -22 4 -50 2 -27 4 -50 5 -50 3 0
12 -107 13 -167 1 -32 4 -58 7 -58 3 0 6 -17 7 -38 2 -49 12 -187 14 -187 0 0
3 -22 5 -50 2 -27 5 -70 8 -95 5 -47 15 -168 20 -231 2 -20 7 -42 11 -49 6 -9
4 -11 -5 -5 -9 5 -11 4 -6 -4 4 -6 9 -21 11 -34 8 -45 16 -113 17 -139 1 -15
6 -26 12 -25 6 1 10 -3 9 -9 -1 -6 3 -11 10 -12 7 0 23 -3 37 -6 47 -12 135
-19 220 -19 73 1 295 11 295 13 0 1 20 3 45 5 74 7 152 14 205 20 28 3 66 8
85 10 19 2 35 4 35 5 0 2 45 6 107 12 21 2 38 7 38 11 0 4 9 3 20 -3 15 -8 20
-8 20 1 0 7 10 9 25 7 14 -3 25 -2 25 2 0 4 15 7 34 8 18 1 49 4 67 8 43 8 86
14 124 19 17 1 30 4 30 5 0 2 11 4 25 6 14 2 45 6 70 10 25 4 55 8 68 8 12 1
22 4 22 7 0 3 6 6 13 6 6 0 30 4 52 8 51 9 92 15 131 19 17 2 35 6 40 9 5 3
27 8 49 12 58 10 59 10 73 18 7 5 12 3 12 -5 0 -9 3 -9 8 -2 4 6 14 11 22 12
19 1 75 10 75 12 0 2 21 6 65 14 19 4 42 9 51 12 10 2 30 7 45 9 16 2 57 11
92 20 35 8 68 13 73 9 5 -3 9 -1 9 4 0 5 6 9 13 9 6 0 26 4 42 8 17 3 39 8 50
10 35 7 60 13 60 15 0 2 5 3 60 15 41 8 65 14 95 21 14 3 32 7 40 8 9 1 20 5
25 8 6 3 18 4 28 3 9 -2 17 0 17 5 0 4 19 11 43 15 45 9 55 11 60 15 1 1 13 3
27 5 14 1 36 7 50 13 14 5 28 10 33 11 4 0 8 1 10 2 7 2 35 9 59 14 15 3 39
10 53 15 14 5 25 7 25 4 0 -2 12 2 28 9 15 8 37 13 50 12 12 -1 22 2 22 5 0 7
34 17 90 27 13 2 27 8 30 12 3 4 15 7 28 6 12 -1 22 2 22 7 0 4 3 7 8 7 4 -1
10 0 15 1 4 1 10 3 15 4 50 14 107 31 151 46 30 11 58 17 63 14 4 -3 8 -1 8 4
0 8 6 10 50 14 11 1 20 5 20 9 0 4 15 11 33 15 41 10 39 9 59 18 9 4 25 9 35
11 10 2 20 4 23 5 3 1 8 2 13 1 4 0 7 3 7 7 0 5 6 9 13 9 6 1 57 18 112 38 55
21 108 38 118 39 9 0 17 3 17 7 0 7 36 19 54 18 5 -1 12 3 15 8 5 8 144 65
155 64 3 0 31 13 62 29 31 17 60 28 64 25 5 -3 10 -2 12 2 5 14 89 53 99 47 5
-3 12 2 15 10 3 9 10 13 15 10 5 -3 9 -1 9 3 0 5 16 15 35 22 19 7 35 17 35
22 0 6 4 8 9 5 5 -3 14 1 21 9 7 8 16 13 20 10 4 -3 13 2 20 10 7 8 16 12 21
9 5 -3 9 0 9 5 0 6 7 11 15 11 8 0 15 5 15 11 0 5 4 8 9 4 6 -3 13 0 18 7 4 7
22 20 38 28 17 8 34 21 38 27 4 7 15 13 22 13 8 0 15 5 15 10 0 6 5 10 11 10
6 0 16 6 23 12 7 7 25 22 40 33 16 11 50 41 76 67 27 26 51 44 55 40 4 -4 6
-2 5 3 -4 19 0 38 7 32 3 -4 21 17 39 46 18 28 38 58 44 65 6 7 8 16 5 21 -3
5 -1 12 5 16 6 4 8 11 5 16 -4 5 -2 9 2 9 16 0 18 147 2 180 -1 3 -3 10 -4 15
-1 6 -4 24 -8 40 -4 17 -10 41 -13 55 -3 14 -6 35 -7 48 -1 12 -5 22 -10 22
-5 0 -7 9 -4 20 3 11 2 20 -2 20 -4 0 -7 8 -7 18 -1 9 -4 29 -8 45 -3 15 -9
39 -12 55 -4 15 -7 35 -8 45 0 9 -4 17 -9 17 -5 0 -7 6 -5 12 3 7 -1 33 -9 57
-7 24 -11 47 -8 49 3 3 0 11 -6 18 -6 8 -9 21 -5 29 3 8 1 15 -3 15 -5 0 -8 8
-6 17 1 10 -2 24 -8 31 -5 7 -7 15 -4 19 4 3 2 12 -4 20 -6 7 -8 13 -4 13 4 0
1 8 -6 17 -12 15 -12 16 1 8 13 -8 13 -6 1 8 -7 9 -11 23 -8 32 4 8 2 17 -4
21 -6 3 -9 16 -7 27 1 12 -1 28 -6 35 -4 8 -9 28 -10 46 -1 18 -5 37 -9 43 -4
6 -8 27 -9 47 -2 20 -5 36 -8 36 -3 0 -7 12 -8 28 -2 15 -5 41 -6 57 -2 17 -6
37 -10 45 -3 8 -7 36 -9 63 -1 26 -5 47 -8 47 -6 0 -6 -3 -13 95 -3 39 -5 70
-6 70 -7 0 -12 103 -13 261 -2 139 1 195 10 206 7 8 10 17 7 20 -3 3 1 22 10
41 8 19 12 38 8 41 -3 3 0 6 7 6 7 0 10 4 7 9 -3 5 19 34 49 66 30 31 55 62
55 68 0 5 2 8 6 5 3 -3 25 13 49 36 69 66 120 111 129 113 4 1 20 17 37 35 16
18 29 30 29 26 0 -4 17 9 38 30 21 20 60 55 86 77 27 22 61 52 77 68 16 15 33
27 38 27 5 0 13 9 16 20 4 11 11 18 16 15 5 -4 9 -1 9 4 0 6 7 11 16 11 8 0
13 4 10 9 -3 5 5 16 19 25 14 9 40 31 59 49 19 18 43 38 54 46 12 8 19 18 16
23 -5 7 10 12 29 9 4 0 7 4 7 9 0 6 11 22 25 36 14 14 25 23 25 20 0 -2 41 36
90 85 50 48 90 86 90 84 0 -3 8 3 18 13 11 9 17 20 16 23 -2 4 12 17 31 30 19
13 35 27 35 32 0 12 38 46 44 39 3 -3 6 -1 6 5 0 14 108 122 115 114 4 -3 5
-1 3 5 -3 11 13 30 120 141 28 28 48 53 47 55 -2 2 4 9 14 15 20 12 18 14 71
-44 11 -13 20 -27 20 -33 0 -5 3 -9 8 -7 4 1 9 -2 12 -8 2 -5 21 -26 42 -46
21 -20 38 -40 38 -45 0 -5 9 -15 20 -22 11 -7 20 -20 20 -29 0 -9 3 -13 6 -10
4 4 25 -16 47 -43 22 -28 45 -50 49 -50 5 0 6 -5 3 -10 -3 -6 2 -10 11 -10 10
0 14 -3 11 -6 -3 -4 7 -19 23 -34 17 -16 30 -31 30 -34 0 -3 15 -20 33 -39 41
-42 88 -96 86 -99 -1 -2 18 -23 42 -49 24 -25 69 -73 99 -108 30 -35 65 -74
78 -87 12 -13 22 -25 22 -28 0 -2 15 -20 33 -38 17 -19 57 -63 87 -98 30 -35
67 -76 83 -90 15 -15 27 -31 27 -36 0 -5 9 -15 20 -22 12 -7 18 -17 15 -22 -3
-5 4 -11 15 -15 11 -3 20 -10 20 -15 0 -4 16 -24 36 -44 20 -20 33 -36 30 -36
-3 0 13 -20 37 -44 23 -24 65 -70 92 -102 28 -32 64 -73 82 -91 17 -18 29 -33
26 -33 -2 0 12 -16 33 -35 20 -19 34 -35 31 -35 -4 0 9 -15 28 -34 18 -19 31
-36 29 -39 -3 -3 4 -8 15 -12 12 -3 21 -11 21 -17 0 -5 14 -23 31 -39 17 -16
27 -29 23 -29 -5 0 2 -7 14 -16 12 -8 20 -20 17 -25 -4 -5 1 -9 9 -9 9 0 16
-4 16 -8 0 -18 153 -162 171 -162 5 0 12 -7 15 -15 4 -8 11 -15 16 -15 5 0 22
-9 36 -19 15 -10 30 -19 35 -20 4 0 21 -8 38 -17 17 -8 38 -17 47 -20 66 -16
108 -30 114 -39 5 -6 8 -5 8 3 0 9 5 10 18 3 19 -10 242 -12 242 -2 0 3 15 7
34 8 19 2 47 8 63 14 15 7 34 13 41 15 7 1 25 10 39 19 17 12 23 13 17 4 -6
-10 -3 -10 12 1 10 8 21 17 24 20 3 3 22 13 43 22 20 10 37 22 37 28 0 5 6 10
13 10 7 0 20 8 28 17 9 10 35 35 58 56 24 20 39 37 34 37 -4 1 1 8 12 18 11 9
31 34 44 55 12 20 27 37 32 37 6 0 7 5 4 10 -3 6 3 22 14 36 11 14 23 38 26
54 4 17 10 30 14 30 5 0 7 10 7 22 -1 13 1 28 5 33 11 15 21 63 22 107 1 21 4
38 7 38 3 0 4 24 3 52 -4 61 -11 133 -13 133 -2 0 -8 34 -12 65 -2 14 -7 28
-11 31 -5 3 -9 12 -10 20 -2 8 -6 20 -10 27 -5 6 -5 17 -2 22 3 6 1 10 -5 10
-6 0 -8 5 -5 10 3 6 2 10 -2 10 -9 0 -55 86 -50 95 1 2 -8 12 -20 20 -13 9
-23 22 -23 28 -1 7 -39 48 -87 92 -47 44 -108 102 -137 129 -28 26 -53 47 -54
46 -2 -1 -31 23 -64 54 -32 31 -62 56 -65 56 -3 0 -18 14 -34 31 -16 17 -29
29 -29 26 0 -3 -20 14 -44 36 -106 99 -135 124 -141 119 -3 -3 -5 3 -5 13 0
10 -3 15 -6 12 -4 -3 -20 8 -35 24 -16 17 -29 27 -29 23 0 -5 -16 9 -35 29
-19 20 -39 37 -45 37 -5 0 -10 7 -10 15 0 8 -4 15 -10 15 -5 0 -18 7 -27 16
-89 81 -117 104 -125 104 -5 0 -6 5 -3 10 3 6 2 10 -3 10 -4 0 -24 14 -42 30
-18 17 -38 30 -42 30 -5 0 -6 5 -3 10 3 6 1 10 -6 10 -6 0 -22 11 -35 25 -13
14 -26 25 -30 25 -3 0 -20 15 -38 34 -17 18 -43 41 -58 51 -16 9 -25 22 -21
29 3 6 3 8 -1 4 -9 -7 -34 13 -144 114 -22 20 -43 34 -46 31 -3 -4 -6 -1 -6 6
0 13 -24 41 -35 41 -3 0 -22 16 -42 35 -20 19 -40 35 -45 35 -4 0 -8 7 -8 16
0 8 -4 13 -8 10 -5 -3 -34 19 -65 49 -30 29 -67 61 -81 70 -14 10 -23 21 -20
26 3 5 1 8 -4 7 -6 -2 -18 5 -29 15 -54 53 -129 117 -136 117 -5 0 -5 5 -2 10
4 6 2 9 -3 8 -8 -3 -70 48 -163 132 l-27 25 54 89 c30 49 54 95 54 102 0 8 5
14 10 14 6 0 10 7 10 15 0 8 5 15 11 15 5 0 8 4 4 9 -3 5 1 16 9 24 8 8 12 17
9 21 -4 3 -1 6 6 6 7 0 9 4 6 10 -3 6 -1 10 5 10 6 0 8 5 5 10 -3 6 -1 10 4
10 6 0 10 3 9 7 -2 11 24 66 35 74 5 3 8 9 8 13 -1 3 5 19 13 35 9 16 12 31 9
35 -4 3 -2 6 4 6 5 0 15 18 22 40 6 22 16 40 22 40 6 0 8 3 5 8 -6 10 16 46
32 49 6 2 12 -2 12 -7 0 -6 7 -10 15 -10 8 0 15 -5 15 -11 0 -5 4 -8 9 -4 5 3
12 1 16 -5 3 -5 21 -17 39 -25 18 -9 43 -25 55 -36 11 -11 21 -16 21 -12 0 4
7 0 14 -10 8 -10 16 -17 19 -15 3 2 17 -7 31 -19 15 -13 29 -23 32 -23 6 0 96
-60 104 -69 3 -4 22 -15 43 -26 20 -11 37 -23 37 -28 0 -4 5 -5 10 -2 5 3 10
1 10 -4 0 -6 5 -11 11 -11 6 0 23 -9 39 -20 15 -11 29 -17 32 -14 3 2 11 -2
18 -11 7 -8 19 -15 26 -15 8 0 14 -5 14 -12 0 -6 3 -9 6 -5 3 3 22 -3 42 -13
64 -32 178 -76 207 -80 3 0 23 -7 46 -15 23 -8 54 -15 70 -15 16 0 29 -3 29
-7 0 -17 338 -19 358 -3 1 2 11 4 22 5 11 1 22 4 25 5 3 1 10 4 15 5 6 1 12 4
15 5 3 1 10 4 15 5 6 1 12 4 15 5 3 1 8 3 13 4 4 1 17 7 30 14 12 7 22 10 22
6 0 -4 8 0 18 9 10 10 22 14 25 10 4 -3 7 -1 7 5 0 7 7 12 15 12 8 0 15 5 15
10 0 6 4 10 10 10 18 0 89 55 95 73 4 9 10 15 15 12 5 -3 11 8 15 25 4 16 11
30 16 30 5 0 9 8 9 18 0 10 5 23 12 30 7 7 8 12 4 12 -5 0 -4 6 2 12 9 13 42
114 49 153 2 11 6 27 10 35 3 8 8 24 10 35 2 11 9 38 15 60 6 22 12 45 13 50
1 6 3 12 4 15 4 8 11 43 13 63 1 9 6 17 10 17 3 0 7 8 6 18 0 25 12 76 20 82
4 3 8 11 10 19 7 33 32 81 41 81 6 0 11 6 11 13 1 13 72 73 86 71 5 -1 14 5
19 13 11 14 29 24 165 93 47 23 88 47 91 53 4 5 12 6 18 3 6 -4 11 -2 11 4 0
6 4 9 9 6 5 -3 11 1 15 9 3 8 12 15 19 15 20 0 77 57 78 78 5 57 5 118 0 127
-6 10 -9 22 -16 65 -10 59 -17 83 -31 110 -1 3 26 6 59 7 34 1 71 4 82 6 11 3
34 8 50 12 17 4 36 12 43 18 6 5 12 6 12 3 0 -10 60 33 83 59 26 28 48 71 40
79 -4 3 -2 6 3 6 5 0 11 8 11 18 5 45 9 68 14 77 3 6 5 27 4 47 0 21 2 38 5
38 3 0 6 19 7 43 2 59 19 222 23 222 3 0 10 47 11 68 0 9 4 17 9 17 4 0 6 9 3
20 -3 11 0 20 6 20 6 0 10 3 10 7 -7 45 49 105 102 108 35 3 93 11 144 22 17
3 38 6 48 7 9 0 17 5 17 10 0 5 3 7 6 3 3 -3 23 1 45 8 21 8 39 12 39 10 0 -2
18 2 39 10 22 7 42 11 45 8 3 -4 6 -1 6 6 0 6 6 11 13 10 6 -2 29 5 51 14 21
9 42 14 47 11 5 -3 9 0 9 5 0 6 9 11 20 11 11 0 20 5 20 11 0 6 7 9 15 5 8 -3
15 -2 15 3 0 5 15 15 33 22 47 19 106 62 107 77 0 7 4 11 8 8 25 -16 42 113
18 143 -9 12 -8 13 3 6 11 -6 12 -5 5 6 -10 17 -14 32 -17 76 -1 18 -6 33 -10
33 -5 0 -7 6 -4 13 2 6 -2 26 -10 44 -7 18 -13 44 -13 58 0 14 -4 25 -8 25 -4
0 -9 8 -10 18 -2 21 -10 57 -12 57 -2 0 -11 38 -12 53 -1 6 -5 12 -10 12 -4 0
-8 10 -8 23 0 23 -19 83 -33 105 -5 6 -6 16 -2 21 3 5 1 12 -5 16 -6 4 -8 10
-5 15 3 5 1 11 -5 15 -5 3 -10 14 -10 23 0 9 -7 30 -15 45 -8 15 -10 25 -5 22
5 -3 2 8 -6 25 -8 16 -16 39 -17 50 -1 11 -4 20 -8 20 -6 0 -23 58 -20 73 0 4
-4 7 -10 7 -5 0 -7 5 -4 10 4 6 1 17 -5 25 -7 8 -9 15 -5 15 4 0 2 6 -4 13 -6
8 -8 17 -4 20 3 4 2 7 -4 7 -5 0 -10 6 -11 13 -1 14 -10 51 -12 55 -2 1 -3 5
-4 10 -7 30 -41 120 -50 131 -8 11 -8 13 1 8 8 -5 7 1 -2 20 -7 16 -15 37 -17
48 -2 11 -6 23 -10 26 -5 3 -9 17 -10 32 -1 15 -5 27 -9 27 -4 0 -9 15 -13 33
-8 41 -10 50 -18 63 -12 18 1 78 19 92 9 6 13 12 8 12 -4 0 -2 8 6 18 8 9 24
35 34 57 11 22 28 48 37 59 10 10 15 23 12 28 -3 4 -2 8 3 8 4 0 18 23 31 50
13 28 27 50 32 50 5 0 7 6 4 14 -3 7 1 20 9 27 8 8 22 32 32 54 10 22 27 52
36 66 10 14 16 29 12 33 -3 3 -1 6 5 6 6 0 9 7 6 15 -4 8 -1 15 4 15 10 0 23
26 21 44 0 5 4 12 9 15 12 7 76 142 74 154 -1 4 2 7 8 7 5 0 10 9 10 20 0 11
5 20 11 20 5 0 8 4 4 9 -3 5 -1 12 5 16 6 4 8 11 5 16 -4 5 -1 9 4 9 6 0 10 3
9 8 -1 4 5 21 12 37 7 17 14 33 15 38 2 4 4 10 5 15 1 4 2 10 1 15 0 4 4 7 11
7 6 0 8 3 5 7 -4 3 -1 16 6 27 13 20 29 69 26 82 0 4 4 10 10 13 6 4 12 16 14
26 2 11 9 33 16 49 6 16 13 36 15 45 2 9 8 27 13 41 6 14 9 28 6 33 -2 4 0 7
5 7 7 0 14 21 37 110 1 3 4 12 7 20 13 34 20 56 25 80 3 14 6 30 7 35 1 6 7
20 14 31 6 12 9 24 6 27 -3 2 1 20 9 38 7 19 12 40 9 48 -2 8 -1 11 4 8 5 -3
10 5 10 16 1 12 4 29 6 37 3 8 8 36 13 63 4 26 11 47 14 47 4 0 7 10 6 23 -1
12 3 36 9 52 6 17 11 42 10 58 -1 15 2 27 7 27 4 0 6 8 4 18 -1 9 0 21 3 27 4
5 7 23 9 40 1 16 5 45 8 63 11 67 27 194 29 229 1 12 5 25 9 29 4 4 2 13 -4
21 -6 7 -7 13 -2 13 5 0 9 19 11 43 5 107 8 503 3 512 -5 9 -6 19 -15 120 -3
33 -8 74 -11 90 -3 17 -6 47 -8 68 -1 20 -5 37 -9 37 -4 0 -7 8 -7 18 0 20 -4
49 -20 122 -6 30 -13 64 -15 75 -2 11 -9 33 -15 48 -6 16 -9 32 -6 37 3 5 0
12 -6 15 -5 4 -8 13 -5 21 3 8 2 14 -3 14 -4 0 -8 6 -9 13 0 6 -3 23 -7 37
-14 58 -15 73 -4 87 7 8 14 27 15 41 1 15 6 39 12 55 7 15 9 27 6 27 -2 0 2
12 9 28 7 15 13 34 12 42 -1 8 3 23 8 33 11 23 19 57 19 80 -1 9 3 17 8 17 4
0 7 11 5 25 -1 14 2 28 6 31 5 3 9 16 9 29 0 13 5 27 10 30 6 3 8 17 6 31 -3
13 0 24 5 24 6 0 7 5 4 10 -3 6 -3 16 2 22 7 12 12 43 16 91 1 9 4 17 7 17 3
0 7 17 8 37 2 21 6 40 10 43 4 3 8 16 8 30 2 26 11 85 14 85 2 0 9 32 14 70
10 70 23 140 26 140 1 0 3 18 6 40 2 22 9 53 14 68 6 19 6 26 -1 21 -7 -4 -7
1 0 15 7 11 9 21 5 21 -3 0 -1 6 5 13 6 8 9 16 6 19 -3 2 -1 29 5 59 11 63 16
94 26 169 8 65 12 99 20 160 4 25 7 55 7 68 1 12 5 22 10 22 5 0 4 6 -2 13 -6
8 -8 17 -4 21 4 4 8 21 9 39 1 18 3 32 4 32 2 0 1 -8 24 240 1 11 5 26 9 33 5
6 4 12 -2 12 -7 0 -7 8 -1 26 7 18 7 23 -2 18 -7 -4 -8 -3 -4 5 8 12 16 83 19
181 2 36 6 70 10 77 4 6 1 13 -5 16 -9 3 -10 8 -3 18 11 15 12 312 1 367 -5
26 -4 32 6 26 10 -6 10 -5 2 7 -7 8 -15 33 -19 57 -8 49 -30 76 -56 69 -11 -3
-19 -2 -19 2 0 4 -24 7 -52 6 -29 0 -57 1 -61 3 -5 2 -80 5 -168 5 -98 1 -159
6 -159 12 0 7 -3 7 -8 0 -10 -14 -32 -17 -32 -5 0 6 -9 6 -25 0 -17 -7 -25 -6
-25 1 0 8 -4 8 -13 0 -8 -6 -16 -8 -19 -5 -3 3 -93 8 -200 10 -106 3 -227 6
-268 8 -41 1 -81 6 -89 10 -10 7 -12 5 -6 -4 6 -9 4 -11 -5 -5 -7 4 -43 9 -79
11 -36 1 -66 3 -66 4 0 1 -20 3 -45 6 -81 7 -100 10 -106 17 -3 3 -12 3 -20 0
-8 -3 -14 -1 -14 5 0 6 -8 9 -17 8 -10 -2 -27 0 -38 5 -48 18 -60 22 -67 21
-5 -1 -8 3 -8 9 0 5 -4 8 -9 4 -5 -3 -16 1 -24 9 -8 8 -16 13 -19 11 -2 -2
-23 14 -47 36 -25 21 -41 39 -36 39 4 0 -1 8 -11 18 -24 22 -44 57 -44 77 0 8
-4 15 -10 15 -5 0 -10 9 -10 21 0 11 -4 28 -9 38 -10 17 -17 61 -27 155 -2 28
-6 52 -9 54 -2 2 0 15 5 28 5 13 6 24 2 24 -10 0 -4 144 13 335 4 39 8 86 9
105 2 19 4 40 6 45 1 6 1 12 0 15 -7 17 -3 100 5 100 7 0 6 3 0 8 -6 4 -11 25
-12 47 -1 63 -15 166 -28 215 -4 14 -8 32 -9 40 -1 8 -9 30 -18 48 -9 18 -12
30 -7 27 5 -3 6 1 3 9 -3 9 -11 16 -17 16 -6 0 -7 3 -4 7 4 3 2 12 -4 20 -6 7
-8 13 -3 13 5 0 4 4 -3 8 -6 4 -13 14 -15 22 -2 8 -10 22 -18 30 -8 8 -16 22
-18 30 -2 8 -12 23 -23 33 -10 10 -19 22 -19 28 0 6 -4 7 -10 4 -5 -3 -10 0
-10 8 0 8 -10 22 -22 30 -13 9 -36 27 -52 41 -16 14 -37 28 -47 31 -11 4 -19
10 -19 15 0 4 -10 11 -22 15 -13 4 -25 8 -28 9 -42 19 -64 23 -115 20 -33 -1
-72 -5 -87 -8 -16 -3 -38 -8 -50 -10 -39 -8 -62 -14 -108 -26 -61 -16 -83 -21
-97 -22 -7 -1 -13 -4 -13 -8 0 -4 -10 -6 -22 -5 -13 1 -29 -3 -37 -9 -8 -6
-16 -10 -18 -8 -1 1 -4 2 -5 1 -3 -1 -34 -5 -90 -12 -21 -3 -38 -2 -38 2 0 4
-6 8 -12 9 -7 0 -20 3 -28 5 -50 16 -60 20 -60 29 0 5 -4 7 -8 4 -5 -3 -18 3
-29 14 -12 10 -24 16 -27 13 -3 -4 -6 -1 -6 5 0 7 -5 12 -10 12 -12 0 -73 41
-78 53 -2 4 -10 7 -18 7 -8 0 -14 5 -14 11 0 5 -4 7 -10 4 -5 -3 -10 -2 -10 3
0 12 -70 50 -103 56 -15 2 -29 0 -33 -5 -3 -5 -10 -7 -15 -4 -5 4 -9 2 -9 -4
0 -5 -10 -13 -21 -16 -12 -4 -35 -20 -50 -36 -16 -16 -31 -29 -35 -29 -10 0
-44 -41 -44 -54 0 -6 -5 -3 -11 6 -5 10 -9 20 -9 23 1 10 -117 139 -129 141
-3 0 -19 6 -35 13 -36 14 -85 9 -161 -19 -33 -12 -69 -24 -80 -27 -11 -4 -23
-11 -27 -16 -3 -6 -14 -11 -25 -12 -10 -1 -36 -11 -58 -21 -22 -10 -43 -19
-47 -20 -5 -1 -11 -3 -15 -4 -5 -1 -11 -2 -15 -1 -5 0 -8 -3 -8 -7 0 -5 -6 -9
-12 -9 -7 0 -29 -4 -48 -8 -59 -13 -101 -8 -126 16 -13 12 -24 29 -24 37 0 9
-3 12 -7 9 -3 -4 -18 10 -31 30 -14 21 -36 47 -49 59 -12 11 -19 25 -15 29 4
5 2 5 -5 1 -7 -4 -18 4 -27 21 -8 15 -17 27 -20 26 -3 -2 -6 0 -5 3 0 3 -13
15 -28 27 -15 12 -41 34 -57 50 -16 15 -33 27 -38 27 -5 0 -6 5 -2 12 4 6 3 8
-3 5 -6 -4 -23 5 -37 18 -15 14 -34 25 -42 25 -7 0 -14 4 -14 9 0 10 -31 21
-75 27 -20 2 -40 -4 -60 -19z"/>
</g>
</svg>
